<mxfile host="app.diagrams.net" agent="Mozilla/5.0 (Windows NT 10.0; Win64; x64) AppleWebKit/537.36 (KHTML, like Gecko) Chrome/130.0.0.0 Safari/537.36 Edg/130.0.0.0" version="24.8.4" pages="2">
  <diagram name="第 1 页" id="GiGbnIVxxNEOi2oPHxmY">
    <mxGraphModel dx="835" dy="451" grid="1" gridSize="10" guides="1" tooltips="1" connect="1" arrows="1" fold="1" page="1" pageScale="1" pageWidth="1200" pageHeight="1920" math="0" shadow="0">
      <root>
        <mxCell id="0" />
        <mxCell id="1" parent="0" />
        <mxCell id="qmJgbEEA-6HFDCWvNIaT-1" value="&lt;p&gt;&lt;font face=&quot;Verdana&quot; style=&quot;font-size: 18px;&quot;&gt;1&lt;/font&gt;&lt;/p&gt;" style="text;strokeColor=#82b366;align=center;fillColor=#d5e8d4;html=1;verticalAlign=middle;whiteSpace=wrap;rounded=0;fontFamily=Architects Daughter;fontSource=https%3A%2F%2Ffonts.googleapis.com%2Fcss%3Ffamily%3DArchitects%2BDaughter;sketch=1;curveFitting=1;jiggle=2;shadow=0;strokeWidth=1;perimeterSpacing=0;" parent="1" vertex="1">
          <mxGeometry x="357" y="290" width="33" height="33" as="geometry" />
        </mxCell>
        <mxCell id="qmJgbEEA-6HFDCWvNIaT-2" value="&lt;font face=&quot;Verdana&quot; style=&quot;font-size: 18px;&quot;&gt;5&lt;/font&gt;" style="text;strokeColor=#82b366;align=center;fillColor=#d5e8d4;html=1;verticalAlign=middle;whiteSpace=wrap;rounded=0;fontFamily=Architects Daughter;fontSource=https%3A%2F%2Ffonts.googleapis.com%2Fcss%3Ffamily%3DArchitects%2BDaughter;sketch=1;curveFitting=1;jiggle=2;shadow=0;strokeWidth=1;perimeterSpacing=0;" parent="1" vertex="1">
          <mxGeometry x="390" y="290" width="33" height="33" as="geometry" />
        </mxCell>
        <mxCell id="qmJgbEEA-6HFDCWvNIaT-3" value="&lt;span style=&quot;font-size: 18px;&quot;&gt;&lt;font face=&quot;Verdana&quot;&gt;9&lt;/font&gt;&lt;/span&gt;" style="text;strokeColor=#82b366;align=center;fillColor=#d5e8d4;html=1;verticalAlign=middle;whiteSpace=wrap;rounded=0;fontFamily=Architects Daughter;fontSource=https%3A%2F%2Ffonts.googleapis.com%2Fcss%3Ffamily%3DArchitects%2BDaughter;sketch=1;curveFitting=1;jiggle=2;shadow=0;strokeWidth=1;perimeterSpacing=0;" parent="1" vertex="1">
          <mxGeometry x="423" y="290" width="33" height="33" as="geometry" />
        </mxCell>
        <mxCell id="qmJgbEEA-6HFDCWvNIaT-4" value="&lt;font face=&quot;Verdana&quot; style=&quot;font-size: 18px;&quot;&gt;11&lt;/font&gt;" style="text;strokeColor=#82b366;align=center;fillColor=#d5e8d4;html=1;verticalAlign=middle;whiteSpace=wrap;rounded=0;fontFamily=Architects Daughter;fontSource=https%3A%2F%2Ffonts.googleapis.com%2Fcss%3Ffamily%3DArchitects%2BDaughter;sketch=1;curveFitting=1;jiggle=2;shadow=0;strokeWidth=1;perimeterSpacing=0;" parent="1" vertex="1">
          <mxGeometry x="455" y="290" width="33" height="33" as="geometry" />
        </mxCell>
        <mxCell id="qmJgbEEA-6HFDCWvNIaT-5" value="&lt;font face=&quot;Verdana&quot; style=&quot;font-size: 18px;&quot;&gt;23&lt;/font&gt;" style="text;strokeColor=#82b366;align=center;fillColor=#d5e8d4;html=1;verticalAlign=middle;whiteSpace=wrap;rounded=0;fontFamily=Architects Daughter;fontSource=https%3A%2F%2Ffonts.googleapis.com%2Fcss%3Ffamily%3DArchitects%2BDaughter;sketch=1;curveFitting=1;jiggle=2;shadow=0;strokeWidth=1;perimeterSpacing=0;" parent="1" vertex="1">
          <mxGeometry x="485" y="290" width="33" height="33" as="geometry" />
        </mxCell>
        <mxCell id="qmJgbEEA-6HFDCWvNIaT-7" value="&lt;font face=&quot;Verdana&quot;&gt;array[]&lt;/font&gt;" style="text;strokeColor=none;align=center;fillColor=none;html=1;verticalAlign=middle;whiteSpace=wrap;rounded=0;fontFamily=Architects Daughter;fontSource=https%3A%2F%2Ffonts.googleapis.com%2Fcss%3Ffamily%3DArchitects%2BDaughter;" parent="1" vertex="1">
          <mxGeometry x="280" y="290" width="60" height="30" as="geometry" />
        </mxCell>
        <mxCell id="qmJgbEEA-6HFDCWvNIaT-11" value="&lt;font face=&quot;Verdana&quot;&gt;index&lt;/font&gt;" style="text;strokeColor=none;align=center;fillColor=none;html=1;verticalAlign=middle;whiteSpace=wrap;rounded=0;fontFamily=Architects Daughter;fontSource=https%3A%2F%2Ffonts.googleapis.com%2Fcss%3Ffamily%3DArchitects%2BDaughter;" parent="1" vertex="1">
          <mxGeometry x="280" y="330" width="60" height="30" as="geometry" />
        </mxCell>
        <mxCell id="qmJgbEEA-6HFDCWvNIaT-12" value="&lt;font face=&quot;Verdana&quot;&gt;0&lt;/font&gt;" style="text;strokeColor=none;align=center;fillColor=none;html=1;verticalAlign=middle;whiteSpace=wrap;rounded=0;fontFamily=Architects Daughter;fontSource=https%3A%2F%2Ffonts.googleapis.com%2Fcss%3Ffamily%3DArchitects%2BDaughter;" parent="1" vertex="1">
          <mxGeometry x="363.5" y="330" width="20" height="30" as="geometry" />
        </mxCell>
        <mxCell id="qmJgbEEA-6HFDCWvNIaT-13" value="&lt;font face=&quot;Verdana&quot;&gt;1&lt;/font&gt;" style="text;strokeColor=none;align=center;fillColor=none;html=1;verticalAlign=middle;whiteSpace=wrap;rounded=0;fontFamily=Architects Daughter;fontSource=https%3A%2F%2Ffonts.googleapis.com%2Fcss%3Ffamily%3DArchitects%2BDaughter;" parent="1" vertex="1">
          <mxGeometry x="396.5" y="330" width="20" height="30" as="geometry" />
        </mxCell>
        <mxCell id="qmJgbEEA-6HFDCWvNIaT-14" value="&lt;font face=&quot;Verdana&quot;&gt;2&lt;/font&gt;" style="text;strokeColor=none;align=center;fillColor=none;html=1;verticalAlign=middle;whiteSpace=wrap;rounded=0;fontFamily=Architects Daughter;fontSource=https%3A%2F%2Ffonts.googleapis.com%2Fcss%3Ffamily%3DArchitects%2BDaughter;" parent="1" vertex="1">
          <mxGeometry x="429.5" y="330" width="20" height="30" as="geometry" />
        </mxCell>
        <mxCell id="qmJgbEEA-6HFDCWvNIaT-15" value="&lt;font face=&quot;Verdana&quot;&gt;3&lt;/font&gt;" style="text;strokeColor=none;align=center;fillColor=none;html=1;verticalAlign=middle;whiteSpace=wrap;rounded=0;fontFamily=Architects Daughter;fontSource=https%3A%2F%2Ffonts.googleapis.com%2Fcss%3Ffamily%3DArchitects%2BDaughter;" parent="1" vertex="1">
          <mxGeometry x="461.5" y="330" width="20" height="30" as="geometry" />
        </mxCell>
        <mxCell id="qmJgbEEA-6HFDCWvNIaT-16" value="&lt;font face=&quot;Verdana&quot;&gt;4&lt;/font&gt;" style="text;strokeColor=none;align=center;fillColor=none;html=1;verticalAlign=middle;whiteSpace=wrap;rounded=0;fontFamily=Architects Daughter;fontSource=https%3A%2F%2Ffonts.googleapis.com%2Fcss%3Ffamily%3DArchitects%2BDaughter;" parent="1" vertex="1">
          <mxGeometry x="491.5" y="330" width="20" height="30" as="geometry" />
        </mxCell>
        <mxCell id="qmJgbEEA-6HFDCWvNIaT-17" value="&lt;font face=&quot;Verdana&quot; style=&quot;font-size: 18px;&quot;&gt;29&lt;/font&gt;" style="text;strokeColor=#82b366;align=center;fillColor=#d5e8d4;html=1;verticalAlign=middle;whiteSpace=wrap;rounded=0;fontFamily=Architects Daughter;fontSource=https%3A%2F%2Ffonts.googleapis.com%2Fcss%3Ffamily%3DArchitects%2BDaughter;sketch=1;curveFitting=1;jiggle=2;shadow=0;strokeWidth=1;perimeterSpacing=0;" parent="1" vertex="1">
          <mxGeometry x="518" y="290" width="33" height="33" as="geometry" />
        </mxCell>
        <mxCell id="qmJgbEEA-6HFDCWvNIaT-18" value="&lt;font face=&quot;Verdana&quot; style=&quot;font-size: 18px;&quot;&gt;31&lt;/font&gt;" style="text;strokeColor=#82b366;align=center;fillColor=#d5e8d4;html=1;verticalAlign=middle;whiteSpace=wrap;rounded=0;fontFamily=Architects Daughter;fontSource=https%3A%2F%2Ffonts.googleapis.com%2Fcss%3Ffamily%3DArchitects%2BDaughter;sketch=1;curveFitting=1;jiggle=2;shadow=0;strokeWidth=1;perimeterSpacing=0;" parent="1" vertex="1">
          <mxGeometry x="551" y="290" width="33" height="33" as="geometry" />
        </mxCell>
        <mxCell id="qmJgbEEA-6HFDCWvNIaT-19" value="&lt;font face=&quot;Verdana&quot;&gt;5&lt;/font&gt;" style="text;strokeColor=none;align=center;fillColor=none;html=1;verticalAlign=middle;whiteSpace=wrap;rounded=0;fontFamily=Architects Daughter;fontSource=https%3A%2F%2Ffonts.googleapis.com%2Fcss%3Ffamily%3DArchitects%2BDaughter;" parent="1" vertex="1">
          <mxGeometry x="524.5" y="330" width="20" height="30" as="geometry" />
        </mxCell>
        <mxCell id="qmJgbEEA-6HFDCWvNIaT-20" value="&lt;font face=&quot;Verdana&quot;&gt;6&lt;/font&gt;" style="text;strokeColor=none;align=center;fillColor=none;html=1;verticalAlign=middle;whiteSpace=wrap;rounded=0;fontFamily=Architects Daughter;fontSource=https%3A%2F%2Ffonts.googleapis.com%2Fcss%3Ffamily%3DArchitects%2BDaughter;" parent="1" vertex="1">
          <mxGeometry x="557.5" y="330" width="20" height="30" as="geometry" />
        </mxCell>
        <mxCell id="qmJgbEEA-6HFDCWvNIaT-22" value="" style="edgeStyle=none;orthogonalLoop=1;jettySize=auto;html=1;rounded=0;hachureGap=4;fontFamily=Architects Daughter;fontSource=https%3A%2F%2Ffonts.googleapis.com%2Fcss%3Ffamily%3DArchitects%2BDaughter;shape=flexArrow;strokeWidth=1;startSize=6;width=5;endWidth=9.142857142857142;endSize=4.428571428571429;" parent="1" edge="1">
          <mxGeometry width="80" relative="1" as="geometry">
            <mxPoint x="471.21" y="240" as="sourcePoint" />
            <mxPoint x="471.62999999999994" y="282" as="targetPoint" />
            <Array as="points">
              <mxPoint x="471.62999999999994" y="260" />
            </Array>
          </mxGeometry>
        </mxCell>
        <mxCell id="qmJgbEEA-6HFDCWvNIaT-23" value="&lt;font face=&quot;Helvetica&quot;&gt;&lt;b&gt;array的长度为7&lt;/b&gt;&lt;/font&gt;&lt;div&gt;&lt;font face=&quot;KrI_lS5NUkX_QAPPxGg9&quot;&gt;&lt;b&gt;中间的数字为长度/2=3&lt;/b&gt;&lt;/font&gt;&lt;/div&gt;" style="text;strokeColor=none;align=left;fillColor=none;html=1;verticalAlign=middle;whiteSpace=wrap;rounded=0;fontFamily=Architects Daughter;fontSource=https%3A%2F%2Ffonts.googleapis.com%2Fcss%3Ffamily%3DArchitects%2BDaughter;" parent="1" vertex="1">
          <mxGeometry x="280" y="220" width="148.5" height="30" as="geometry" />
        </mxCell>
        <mxCell id="qmJgbEEA-6HFDCWvNIaT-24" value="&lt;font face=&quot;Courier New&quot;&gt;中间的数字&lt;/font&gt;" style="text;strokeColor=none;align=center;fillColor=none;html=1;verticalAlign=middle;whiteSpace=wrap;rounded=0;fontFamily=Architects Daughter;fontSource=https%3A%2F%2Ffonts.googleapis.com%2Fcss%3Ffamily%3DArchitects%2BDaughter;" parent="1" vertex="1">
          <mxGeometry x="441.5" y="210" width="68.5" height="30" as="geometry" />
        </mxCell>
        <mxCell id="qmJgbEEA-6HFDCWvNIaT-25" value="&lt;p&gt;&lt;font face=&quot;Verdana&quot; style=&quot;font-size: 18px;&quot;&gt;1&lt;/font&gt;&lt;/p&gt;" style="text;strokeColor=#82b366;align=center;fillColor=#d5e8d4;html=1;verticalAlign=middle;whiteSpace=wrap;rounded=0;fontFamily=Architects Daughter;fontSource=https%3A%2F%2Ffonts.googleapis.com%2Fcss%3Ffamily%3DArchitects%2BDaughter;sketch=1;curveFitting=1;jiggle=2;shadow=0;strokeWidth=1;perimeterSpacing=0;" parent="1" vertex="1">
          <mxGeometry x="357" y="490" width="33" height="33" as="geometry" />
        </mxCell>
        <mxCell id="qmJgbEEA-6HFDCWvNIaT-26" value="&lt;font face=&quot;Verdana&quot; style=&quot;font-size: 18px;&quot;&gt;5&lt;/font&gt;" style="text;strokeColor=#82b366;align=center;fillColor=#d5e8d4;html=1;verticalAlign=middle;whiteSpace=wrap;rounded=0;fontFamily=Architects Daughter;fontSource=https%3A%2F%2Ffonts.googleapis.com%2Fcss%3Ffamily%3DArchitects%2BDaughter;sketch=1;curveFitting=1;jiggle=2;shadow=0;strokeWidth=1;perimeterSpacing=0;" parent="1" vertex="1">
          <mxGeometry x="390" y="490" width="33" height="33" as="geometry" />
        </mxCell>
        <mxCell id="qmJgbEEA-6HFDCWvNIaT-27" value="&lt;span style=&quot;font-size: 18px;&quot;&gt;&lt;font face=&quot;Verdana&quot;&gt;9&lt;/font&gt;&lt;/span&gt;" style="text;strokeColor=#82b366;align=center;fillColor=#d5e8d4;html=1;verticalAlign=middle;whiteSpace=wrap;rounded=0;fontFamily=Architects Daughter;fontSource=https%3A%2F%2Ffonts.googleapis.com%2Fcss%3Ffamily%3DArchitects%2BDaughter;sketch=1;curveFitting=1;jiggle=2;shadow=0;strokeWidth=1;perimeterSpacing=0;" parent="1" vertex="1">
          <mxGeometry x="423" y="490" width="33" height="33" as="geometry" />
        </mxCell>
        <mxCell id="qmJgbEEA-6HFDCWvNIaT-28" value="&lt;font face=&quot;Verdana&quot; style=&quot;font-size: 18px;&quot;&gt;11&lt;/font&gt;" style="text;strokeColor=#82b366;align=center;fillColor=#d5e8d4;html=1;verticalAlign=middle;whiteSpace=wrap;rounded=0;fontFamily=Architects Daughter;fontSource=https%3A%2F%2Ffonts.googleapis.com%2Fcss%3Ffamily%3DArchitects%2BDaughter;sketch=1;curveFitting=1;jiggle=2;shadow=0;strokeWidth=1;perimeterSpacing=0;" parent="1" vertex="1">
          <mxGeometry x="455" y="490" width="33" height="33" as="geometry" />
        </mxCell>
        <mxCell id="qmJgbEEA-6HFDCWvNIaT-29" value="&lt;font face=&quot;Verdana&quot; style=&quot;font-size: 18px;&quot;&gt;23&lt;/font&gt;" style="text;strokeColor=#82b366;align=center;fillColor=#d5e8d4;html=1;verticalAlign=middle;whiteSpace=wrap;rounded=0;fontFamily=Architects Daughter;fontSource=https%3A%2F%2Ffonts.googleapis.com%2Fcss%3Ffamily%3DArchitects%2BDaughter;sketch=1;curveFitting=1;jiggle=2;shadow=0;strokeWidth=1;perimeterSpacing=0;" parent="1" vertex="1">
          <mxGeometry x="485" y="490" width="33" height="33" as="geometry" />
        </mxCell>
        <mxCell id="qmJgbEEA-6HFDCWvNIaT-30" value="&lt;font face=&quot;Verdana&quot;&gt;array[]&lt;/font&gt;" style="text;strokeColor=none;align=center;fillColor=none;html=1;verticalAlign=middle;whiteSpace=wrap;rounded=0;fontFamily=Architects Daughter;fontSource=https%3A%2F%2Ffonts.googleapis.com%2Fcss%3Ffamily%3DArchitects%2BDaughter;" parent="1" vertex="1">
          <mxGeometry x="280" y="490" width="60" height="30" as="geometry" />
        </mxCell>
        <mxCell id="qmJgbEEA-6HFDCWvNIaT-31" value="&lt;font face=&quot;Verdana&quot;&gt;index&lt;/font&gt;" style="text;strokeColor=none;align=center;fillColor=none;html=1;verticalAlign=middle;whiteSpace=wrap;rounded=0;fontFamily=Architects Daughter;fontSource=https%3A%2F%2Ffonts.googleapis.com%2Fcss%3Ffamily%3DArchitects%2BDaughter;" parent="1" vertex="1">
          <mxGeometry x="280" y="530" width="60" height="30" as="geometry" />
        </mxCell>
        <mxCell id="qmJgbEEA-6HFDCWvNIaT-32" value="&lt;font face=&quot;Verdana&quot;&gt;0&lt;/font&gt;" style="text;strokeColor=none;align=center;fillColor=none;html=1;verticalAlign=middle;whiteSpace=wrap;rounded=0;fontFamily=Architects Daughter;fontSource=https%3A%2F%2Ffonts.googleapis.com%2Fcss%3Ffamily%3DArchitects%2BDaughter;" parent="1" vertex="1">
          <mxGeometry x="363.5" y="530" width="20" height="30" as="geometry" />
        </mxCell>
        <mxCell id="qmJgbEEA-6HFDCWvNIaT-33" value="&lt;font face=&quot;Verdana&quot;&gt;1&lt;/font&gt;" style="text;strokeColor=none;align=center;fillColor=none;html=1;verticalAlign=middle;whiteSpace=wrap;rounded=0;fontFamily=Architects Daughter;fontSource=https%3A%2F%2Ffonts.googleapis.com%2Fcss%3Ffamily%3DArchitects%2BDaughter;" parent="1" vertex="1">
          <mxGeometry x="396.5" y="530" width="20" height="30" as="geometry" />
        </mxCell>
        <mxCell id="qmJgbEEA-6HFDCWvNIaT-34" value="&lt;font face=&quot;Verdana&quot;&gt;2&lt;/font&gt;" style="text;strokeColor=none;align=center;fillColor=none;html=1;verticalAlign=middle;whiteSpace=wrap;rounded=0;fontFamily=Architects Daughter;fontSource=https%3A%2F%2Ffonts.googleapis.com%2Fcss%3Ffamily%3DArchitects%2BDaughter;" parent="1" vertex="1">
          <mxGeometry x="429.5" y="530" width="20" height="30" as="geometry" />
        </mxCell>
        <mxCell id="qmJgbEEA-6HFDCWvNIaT-35" value="&lt;font face=&quot;Verdana&quot;&gt;3&lt;/font&gt;" style="text;strokeColor=none;align=center;fillColor=none;html=1;verticalAlign=middle;whiteSpace=wrap;rounded=0;fontFamily=Architects Daughter;fontSource=https%3A%2F%2Ffonts.googleapis.com%2Fcss%3Ffamily%3DArchitects%2BDaughter;" parent="1" vertex="1">
          <mxGeometry x="461.5" y="530" width="20" height="30" as="geometry" />
        </mxCell>
        <mxCell id="qmJgbEEA-6HFDCWvNIaT-36" value="&lt;font face=&quot;Verdana&quot;&gt;4&lt;/font&gt;" style="text;strokeColor=none;align=center;fillColor=none;html=1;verticalAlign=middle;whiteSpace=wrap;rounded=0;fontFamily=Architects Daughter;fontSource=https%3A%2F%2Ffonts.googleapis.com%2Fcss%3Ffamily%3DArchitects%2BDaughter;" parent="1" vertex="1">
          <mxGeometry x="491.5" y="530" width="20" height="30" as="geometry" />
        </mxCell>
        <mxCell id="qmJgbEEA-6HFDCWvNIaT-37" value="&lt;font face=&quot;Verdana&quot; style=&quot;font-size: 18px;&quot;&gt;29&lt;/font&gt;" style="text;strokeColor=#82b366;align=center;fillColor=#d5e8d4;html=1;verticalAlign=middle;whiteSpace=wrap;rounded=0;fontFamily=Architects Daughter;fontSource=https%3A%2F%2Ffonts.googleapis.com%2Fcss%3Ffamily%3DArchitects%2BDaughter;sketch=1;curveFitting=1;jiggle=2;shadow=0;strokeWidth=1;perimeterSpacing=0;" parent="1" vertex="1">
          <mxGeometry x="518" y="490" width="33" height="33" as="geometry" />
        </mxCell>
        <mxCell id="qmJgbEEA-6HFDCWvNIaT-38" value="&lt;font face=&quot;Verdana&quot; style=&quot;font-size: 18px;&quot;&gt;31&lt;/font&gt;" style="text;strokeColor=#82b366;align=center;fillColor=#d5e8d4;html=1;verticalAlign=middle;whiteSpace=wrap;rounded=0;fontFamily=Architects Daughter;fontSource=https%3A%2F%2Ffonts.googleapis.com%2Fcss%3Ffamily%3DArchitects%2BDaughter;sketch=1;curveFitting=1;jiggle=2;shadow=0;strokeWidth=1;perimeterSpacing=0;" parent="1" vertex="1">
          <mxGeometry x="551" y="490" width="33" height="33" as="geometry" />
        </mxCell>
        <mxCell id="qmJgbEEA-6HFDCWvNIaT-39" value="&lt;font face=&quot;Verdana&quot;&gt;5&lt;/font&gt;" style="text;strokeColor=none;align=center;fillColor=none;html=1;verticalAlign=middle;whiteSpace=wrap;rounded=0;fontFamily=Architects Daughter;fontSource=https%3A%2F%2Ffonts.googleapis.com%2Fcss%3Ffamily%3DArchitects%2BDaughter;" parent="1" vertex="1">
          <mxGeometry x="524.5" y="530" width="20" height="30" as="geometry" />
        </mxCell>
        <mxCell id="qmJgbEEA-6HFDCWvNIaT-40" value="&lt;font face=&quot;Verdana&quot;&gt;6&lt;/font&gt;" style="text;strokeColor=none;align=center;fillColor=none;html=1;verticalAlign=middle;whiteSpace=wrap;rounded=0;fontFamily=Architects Daughter;fontSource=https%3A%2F%2Ffonts.googleapis.com%2Fcss%3Ffamily%3DArchitects%2BDaughter;" parent="1" vertex="1">
          <mxGeometry x="557.5" y="530" width="20" height="30" as="geometry" />
        </mxCell>
        <mxCell id="qmJgbEEA-6HFDCWvNIaT-41" value="" style="edgeStyle=none;orthogonalLoop=1;jettySize=auto;html=1;rounded=0;hachureGap=4;fontFamily=Architects Daughter;fontSource=https%3A%2F%2Ffonts.googleapis.com%2Fcss%3Ffamily%3DArchitects%2BDaughter;shape=flexArrow;strokeWidth=1;startSize=6;width=5;endWidth=9.142857142857142;endSize=4.428571428571429;" parent="1" edge="1">
          <mxGeometry width="80" relative="1" as="geometry">
            <mxPoint x="471.21" y="440" as="sourcePoint" />
            <mxPoint x="471.62999999999994" y="482" as="targetPoint" />
            <Array as="points">
              <mxPoint x="471.62999999999994" y="460" />
            </Array>
          </mxGeometry>
        </mxCell>
        <mxCell id="qmJgbEEA-6HFDCWvNIaT-42" value="&lt;font face=&quot;Helvetica&quot;&gt;&lt;b&gt;array的长度为8&lt;/b&gt;&lt;/font&gt;&lt;div&gt;&lt;font face=&quot;KrI_lS5NUkX_QAPPxGg9&quot;&gt;&lt;b&gt;中间的数字为长度/2=4&lt;/b&gt;&lt;/font&gt;&lt;/div&gt;" style="text;strokeColor=none;align=left;fillColor=none;html=1;verticalAlign=middle;whiteSpace=wrap;rounded=0;fontFamily=Architects Daughter;fontSource=https%3A%2F%2Ffonts.googleapis.com%2Fcss%3Ffamily%3DArchitects%2BDaughter;" parent="1" vertex="1">
          <mxGeometry x="280" y="420" width="148.5" height="30" as="geometry" />
        </mxCell>
        <mxCell id="qmJgbEEA-6HFDCWvNIaT-43" value="&lt;font face=&quot;Courier New&quot;&gt;中间的数字&lt;/font&gt;" style="text;strokeColor=none;align=center;fillColor=none;html=1;verticalAlign=middle;whiteSpace=wrap;rounded=0;fontFamily=Architects Daughter;fontSource=https%3A%2F%2Ffonts.googleapis.com%2Fcss%3Ffamily%3DArchitects%2BDaughter;" parent="1" vertex="1">
          <mxGeometry x="441.5" y="410" width="68.5" height="30" as="geometry" />
        </mxCell>
        <mxCell id="qmJgbEEA-6HFDCWvNIaT-44" value="&lt;font face=&quot;Verdana&quot; style=&quot;font-size: 18px;&quot;&gt;50&lt;/font&gt;" style="text;strokeColor=#82b366;align=center;fillColor=#d5e8d4;html=1;verticalAlign=middle;whiteSpace=wrap;rounded=0;fontFamily=Architects Daughter;fontSource=https%3A%2F%2Ffonts.googleapis.com%2Fcss%3Ffamily%3DArchitects%2BDaughter;sketch=1;curveFitting=1;jiggle=2;shadow=0;strokeWidth=1;perimeterSpacing=0;" parent="1" vertex="1">
          <mxGeometry x="584" y="490" width="33" height="33" as="geometry" />
        </mxCell>
        <mxCell id="qmJgbEEA-6HFDCWvNIaT-45" value="&lt;font face=&quot;Verdana&quot;&gt;7&lt;/font&gt;" style="text;strokeColor=none;align=center;fillColor=none;html=1;verticalAlign=middle;whiteSpace=wrap;rounded=0;fontFamily=Architects Daughter;fontSource=https%3A%2F%2Ffonts.googleapis.com%2Fcss%3Ffamily%3DArchitects%2BDaughter;" parent="1" vertex="1">
          <mxGeometry x="590.5" y="530" width="20" height="30" as="geometry" />
        </mxCell>
        <mxCell id="fSu_mUGJPaRnAbKejhm9-9" value="&lt;p&gt;&lt;font face=&quot;Verdana&quot; style=&quot;font-size: 18px;&quot;&gt;0&lt;/font&gt;&lt;/p&gt;" style="text;strokeColor=#82b366;align=center;fillColor=#d5e8d4;html=1;verticalAlign=middle;whiteSpace=wrap;rounded=0;fontFamily=Architects Daughter;fontSource=https%3A%2F%2Ffonts.googleapis.com%2Fcss%3Ffamily%3DArchitects%2BDaughter;sketch=1;curveFitting=1;jiggle=2;shadow=0;strokeWidth=1;perimeterSpacing=0;" parent="1" vertex="1">
          <mxGeometry x="357" y="630" width="33" height="33" as="geometry" />
        </mxCell>
        <mxCell id="fSu_mUGJPaRnAbKejhm9-10" value="&lt;font face=&quot;Verdana&quot; style=&quot;font-size: 18px;&quot;&gt;1&lt;/font&gt;" style="text;strokeColor=#82b366;align=center;fillColor=#d5e8d4;html=1;verticalAlign=middle;whiteSpace=wrap;rounded=0;fontFamily=Architects Daughter;fontSource=https%3A%2F%2Ffonts.googleapis.com%2Fcss%3Ffamily%3DArchitects%2BDaughter;sketch=1;curveFitting=1;jiggle=2;shadow=0;strokeWidth=1;perimeterSpacing=0;" parent="1" vertex="1">
          <mxGeometry x="390" y="630" width="33" height="33" as="geometry" />
        </mxCell>
        <mxCell id="fSu_mUGJPaRnAbKejhm9-11" value="&lt;span style=&quot;font-size: 18px;&quot;&gt;&lt;font face=&quot;Verdana&quot;&gt;2&lt;/font&gt;&lt;/span&gt;" style="text;strokeColor=#82b366;align=center;fillColor=#d5e8d4;html=1;verticalAlign=middle;whiteSpace=wrap;rounded=0;fontFamily=Architects Daughter;fontSource=https%3A%2F%2Ffonts.googleapis.com%2Fcss%3Ffamily%3DArchitects%2BDaughter;sketch=1;curveFitting=1;jiggle=2;shadow=0;strokeWidth=1;perimeterSpacing=0;" parent="1" vertex="1">
          <mxGeometry x="423" y="630" width="33" height="33" as="geometry" />
        </mxCell>
        <mxCell id="fSu_mUGJPaRnAbKejhm9-12" value="&lt;font face=&quot;Verdana&quot; style=&quot;font-size: 18px;&quot;&gt;3&lt;/font&gt;" style="text;strokeColor=#82b366;align=center;fillColor=#d5e8d4;html=1;verticalAlign=middle;whiteSpace=wrap;rounded=0;fontFamily=Architects Daughter;fontSource=https%3A%2F%2Ffonts.googleapis.com%2Fcss%3Ffamily%3DArchitects%2BDaughter;sketch=1;curveFitting=1;jiggle=2;shadow=0;strokeWidth=1;perimeterSpacing=0;" parent="1" vertex="1">
          <mxGeometry x="455" y="630" width="33" height="33" as="geometry" />
        </mxCell>
        <mxCell id="fSu_mUGJPaRnAbKejhm9-13" value="&lt;font face=&quot;Verdana&quot; style=&quot;font-size: 18px;&quot;&gt;5&lt;/font&gt;" style="text;strokeColor=#82b366;align=center;fillColor=#d5e8d4;html=1;verticalAlign=middle;whiteSpace=wrap;rounded=0;fontFamily=Architects Daughter;fontSource=https%3A%2F%2Ffonts.googleapis.com%2Fcss%3Ffamily%3DArchitects%2BDaughter;sketch=1;curveFitting=1;jiggle=2;shadow=0;strokeWidth=1;perimeterSpacing=0;" parent="1" vertex="1">
          <mxGeometry x="485" y="630" width="33" height="33" as="geometry" />
        </mxCell>
        <mxCell id="fSu_mUGJPaRnAbKejhm9-14" value="&lt;font face=&quot;Verdana&quot; style=&quot;font-size: 18px;&quot;&gt;6&lt;/font&gt;" style="text;strokeColor=#82b366;align=center;fillColor=#d5e8d4;html=1;verticalAlign=middle;whiteSpace=wrap;rounded=0;fontFamily=Architects Daughter;fontSource=https%3A%2F%2Ffonts.googleapis.com%2Fcss%3Ffamily%3DArchitects%2BDaughter;sketch=1;curveFitting=1;jiggle=2;shadow=0;strokeWidth=1;perimeterSpacing=0;" parent="1" vertex="1">
          <mxGeometry x="518" y="630" width="33" height="33" as="geometry" />
        </mxCell>
        <mxCell id="fSu_mUGJPaRnAbKejhm9-15" value="&lt;font face=&quot;Verdana&quot; style=&quot;font-size: 18px;&quot;&gt;7&lt;/font&gt;" style="text;strokeColor=#82b366;align=center;fillColor=#d5e8d4;html=1;verticalAlign=middle;whiteSpace=wrap;rounded=0;fontFamily=Architects Daughter;fontSource=https%3A%2F%2Ffonts.googleapis.com%2Fcss%3Ffamily%3DArchitects%2BDaughter;sketch=1;curveFitting=1;jiggle=2;shadow=0;strokeWidth=1;perimeterSpacing=0;" parent="1" vertex="1">
          <mxGeometry x="551" y="630" width="33" height="33" as="geometry" />
        </mxCell>
        <mxCell id="fSu_mUGJPaRnAbKejhm9-17" value="&lt;font face=&quot;Verdana&quot;&gt;index&lt;/font&gt;" style="text;strokeColor=none;align=center;fillColor=none;html=1;verticalAlign=middle;whiteSpace=wrap;rounded=0;fontFamily=Architects Daughter;fontSource=https%3A%2F%2Ffonts.googleapis.com%2Fcss%3Ffamily%3DArchitects%2BDaughter;" parent="1" vertex="1">
          <mxGeometry x="280" y="680" width="60" height="30" as="geometry" />
        </mxCell>
        <mxCell id="fSu_mUGJPaRnAbKejhm9-18" value="&lt;font face=&quot;Verdana&quot;&gt;0&lt;/font&gt;" style="text;strokeColor=none;align=center;fillColor=none;html=1;verticalAlign=middle;whiteSpace=wrap;rounded=0;fontFamily=Architects Daughter;fontSource=https%3A%2F%2Ffonts.googleapis.com%2Fcss%3Ffamily%3DArchitects%2BDaughter;" parent="1" vertex="1">
          <mxGeometry x="363.5" y="680" width="20" height="30" as="geometry" />
        </mxCell>
        <mxCell id="fSu_mUGJPaRnAbKejhm9-19" value="&lt;font face=&quot;Verdana&quot;&gt;1&lt;/font&gt;" style="text;strokeColor=none;align=center;fillColor=none;html=1;verticalAlign=middle;whiteSpace=wrap;rounded=0;fontFamily=Architects Daughter;fontSource=https%3A%2F%2Ffonts.googleapis.com%2Fcss%3Ffamily%3DArchitects%2BDaughter;" parent="1" vertex="1">
          <mxGeometry x="396.5" y="680" width="20" height="30" as="geometry" />
        </mxCell>
        <mxCell id="fSu_mUGJPaRnAbKejhm9-20" value="&lt;font face=&quot;Verdana&quot;&gt;2&lt;/font&gt;" style="text;strokeColor=none;align=center;fillColor=none;html=1;verticalAlign=middle;whiteSpace=wrap;rounded=0;fontFamily=Architects Daughter;fontSource=https%3A%2F%2Ffonts.googleapis.com%2Fcss%3Ffamily%3DArchitects%2BDaughter;" parent="1" vertex="1">
          <mxGeometry x="429.5" y="680" width="20" height="30" as="geometry" />
        </mxCell>
        <mxCell id="fSu_mUGJPaRnAbKejhm9-21" value="&lt;font face=&quot;Verdana&quot;&gt;3&lt;/font&gt;" style="text;strokeColor=none;align=center;fillColor=none;html=1;verticalAlign=middle;whiteSpace=wrap;rounded=0;fontFamily=Architects Daughter;fontSource=https%3A%2F%2Ffonts.googleapis.com%2Fcss%3Ffamily%3DArchitects%2BDaughter;" parent="1" vertex="1">
          <mxGeometry x="461.5" y="680" width="18.5" height="30" as="geometry" />
        </mxCell>
        <mxCell id="fSu_mUGJPaRnAbKejhm9-22" value="&lt;font color=&quot;#ff0000&quot; face=&quot;Verdana&quot;&gt;4&lt;/font&gt;" style="text;strokeColor=none;align=center;fillColor=none;html=1;verticalAlign=middle;whiteSpace=wrap;rounded=0;fontFamily=Architects Daughter;fontSource=https%3A%2F%2Ffonts.googleapis.com%2Fcss%3Ffamily%3DArchitects%2BDaughter;" parent="1" vertex="1">
          <mxGeometry x="491.5" y="680" width="20" height="30" as="geometry" />
        </mxCell>
        <mxCell id="fSu_mUGJPaRnAbKejhm9-23" value="&lt;font face=&quot;Verdana&quot;&gt;5&lt;/font&gt;" style="text;strokeColor=none;align=center;fillColor=none;html=1;verticalAlign=middle;whiteSpace=wrap;rounded=0;fontFamily=Architects Daughter;fontSource=https%3A%2F%2Ffonts.googleapis.com%2Fcss%3Ffamily%3DArchitects%2BDaughter;" parent="1" vertex="1">
          <mxGeometry x="524.5" y="680" width="20" height="30" as="geometry" />
        </mxCell>
        <mxCell id="fSu_mUGJPaRnAbKejhm9-24" value="&lt;font face=&quot;Verdana&quot;&gt;6&lt;/font&gt;" style="text;strokeColor=none;align=center;fillColor=none;html=1;verticalAlign=middle;whiteSpace=wrap;rounded=0;fontFamily=Architects Daughter;fontSource=https%3A%2F%2Ffonts.googleapis.com%2Fcss%3Ffamily%3DArchitects%2BDaughter;" parent="1" vertex="1">
          <mxGeometry x="557.5" y="680" width="20" height="30" as="geometry" />
        </mxCell>
        <mxCell id="fSu_mUGJPaRnAbKejhm9-27" value="&lt;font face=&quot;Verdana&quot; color=&quot;#ff3333&quot;&gt;pos&lt;/font&gt;" style="text;strokeColor=none;align=center;fillColor=none;html=1;verticalAlign=middle;whiteSpace=wrap;rounded=0;fontFamily=Architects Daughter;fontSource=https%3A%2F%2Ffonts.googleapis.com%2Fcss%3Ffamily%3DArchitects%2BDaughter;" parent="1" vertex="1">
          <mxGeometry x="467.25" y="710" width="68.5" height="30" as="geometry" />
        </mxCell>
        <mxCell id="ZeO_S6Ifk-VQ_fXQaw0C-1" value="" style="shape=table;startSize=0;container=1;collapsible=0;childLayout=tableLayout;fontSize=16;sketch=1;hachureGap=4;jiggle=2;curveFitting=1;fontFamily=Architects Daughter;fontSource=https%3A%2F%2Ffonts.googleapis.com%2Fcss%3Ffamily%3DArchitects%2BDaughter;" vertex="1" parent="1">
          <mxGeometry x="331.5" y="800" width="180" height="120" as="geometry" />
        </mxCell>
        <mxCell id="ZeO_S6Ifk-VQ_fXQaw0C-2" value="" style="shape=tableRow;horizontal=0;startSize=0;swimlaneHead=0;swimlaneBody=0;strokeColor=inherit;top=0;left=0;bottom=0;right=0;collapsible=0;dropTarget=0;fillColor=none;points=[[0,0.5],[1,0.5]];portConstraint=eastwest;fontSize=16;sketch=1;hachureGap=4;jiggle=2;curveFitting=1;fontFamily=Architects Daughter;fontSource=https%3A%2F%2Ffonts.googleapis.com%2Fcss%3Ffamily%3DArchitects%2BDaughter;" vertex="1" parent="ZeO_S6Ifk-VQ_fXQaw0C-1">
          <mxGeometry width="180" height="40" as="geometry" />
        </mxCell>
        <mxCell id="ZeO_S6Ifk-VQ_fXQaw0C-3" value="" style="shape=partialRectangle;html=1;whiteSpace=wrap;connectable=0;strokeColor=inherit;overflow=hidden;fillColor=none;top=0;left=0;bottom=0;right=0;pointerEvents=1;fontSize=16;sketch=1;hachureGap=4;jiggle=2;curveFitting=1;fontFamily=Architects Daughter;fontSource=https%3A%2F%2Ffonts.googleapis.com%2Fcss%3Ffamily%3DArchitects%2BDaughter;" vertex="1" parent="ZeO_S6Ifk-VQ_fXQaw0C-2">
          <mxGeometry width="60" height="40" as="geometry">
            <mxRectangle width="60" height="40" as="alternateBounds" />
          </mxGeometry>
        </mxCell>
        <mxCell id="ZeO_S6Ifk-VQ_fXQaw0C-4" value="" style="shape=partialRectangle;html=1;whiteSpace=wrap;connectable=0;strokeColor=inherit;overflow=hidden;fillColor=none;top=0;left=0;bottom=0;right=0;pointerEvents=1;fontSize=16;sketch=1;hachureGap=4;jiggle=2;curveFitting=1;fontFamily=Architects Daughter;fontSource=https%3A%2F%2Ffonts.googleapis.com%2Fcss%3Ffamily%3DArchitects%2BDaughter;" vertex="1" parent="ZeO_S6Ifk-VQ_fXQaw0C-2">
          <mxGeometry x="60" width="60" height="40" as="geometry">
            <mxRectangle width="60" height="40" as="alternateBounds" />
          </mxGeometry>
        </mxCell>
        <mxCell id="ZeO_S6Ifk-VQ_fXQaw0C-5" value="" style="shape=partialRectangle;html=1;whiteSpace=wrap;connectable=0;strokeColor=inherit;overflow=hidden;fillColor=none;top=0;left=0;bottom=0;right=0;pointerEvents=1;fontSize=16;sketch=1;hachureGap=4;jiggle=2;curveFitting=1;fontFamily=Architects Daughter;fontSource=https%3A%2F%2Ffonts.googleapis.com%2Fcss%3Ffamily%3DArchitects%2BDaughter;" vertex="1" parent="ZeO_S6Ifk-VQ_fXQaw0C-2">
          <mxGeometry x="120" width="60" height="40" as="geometry">
            <mxRectangle width="60" height="40" as="alternateBounds" />
          </mxGeometry>
        </mxCell>
        <mxCell id="ZeO_S6Ifk-VQ_fXQaw0C-6" value="" style="shape=tableRow;horizontal=0;startSize=0;swimlaneHead=0;swimlaneBody=0;strokeColor=inherit;top=0;left=0;bottom=0;right=0;collapsible=0;dropTarget=0;fillColor=none;points=[[0,0.5],[1,0.5]];portConstraint=eastwest;fontSize=16;sketch=1;hachureGap=4;jiggle=2;curveFitting=1;fontFamily=Architects Daughter;fontSource=https%3A%2F%2Ffonts.googleapis.com%2Fcss%3Ffamily%3DArchitects%2BDaughter;" vertex="1" parent="ZeO_S6Ifk-VQ_fXQaw0C-1">
          <mxGeometry y="40" width="180" height="40" as="geometry" />
        </mxCell>
        <mxCell id="ZeO_S6Ifk-VQ_fXQaw0C-7" value="" style="shape=partialRectangle;html=1;whiteSpace=wrap;connectable=0;strokeColor=inherit;overflow=hidden;fillColor=none;top=0;left=0;bottom=0;right=0;pointerEvents=1;fontSize=16;sketch=1;hachureGap=4;jiggle=2;curveFitting=1;fontFamily=Architects Daughter;fontSource=https%3A%2F%2Ffonts.googleapis.com%2Fcss%3Ffamily%3DArchitects%2BDaughter;" vertex="1" parent="ZeO_S6Ifk-VQ_fXQaw0C-6">
          <mxGeometry width="60" height="40" as="geometry">
            <mxRectangle width="60" height="40" as="alternateBounds" />
          </mxGeometry>
        </mxCell>
        <mxCell id="ZeO_S6Ifk-VQ_fXQaw0C-8" value="" style="shape=partialRectangle;html=1;whiteSpace=wrap;connectable=0;strokeColor=inherit;overflow=hidden;fillColor=none;top=0;left=0;bottom=0;right=0;pointerEvents=1;fontSize=16;sketch=1;hachureGap=4;jiggle=2;curveFitting=1;fontFamily=Architects Daughter;fontSource=https%3A%2F%2Ffonts.googleapis.com%2Fcss%3Ffamily%3DArchitects%2BDaughter;" vertex="1" parent="ZeO_S6Ifk-VQ_fXQaw0C-6">
          <mxGeometry x="60" width="60" height="40" as="geometry">
            <mxRectangle width="60" height="40" as="alternateBounds" />
          </mxGeometry>
        </mxCell>
        <mxCell id="ZeO_S6Ifk-VQ_fXQaw0C-9" value="" style="shape=partialRectangle;html=1;whiteSpace=wrap;connectable=0;strokeColor=inherit;overflow=hidden;fillColor=none;top=0;left=0;bottom=0;right=0;pointerEvents=1;fontSize=16;sketch=1;hachureGap=4;jiggle=2;curveFitting=1;fontFamily=Architects Daughter;fontSource=https%3A%2F%2Ffonts.googleapis.com%2Fcss%3Ffamily%3DArchitects%2BDaughter;" vertex="1" parent="ZeO_S6Ifk-VQ_fXQaw0C-6">
          <mxGeometry x="120" width="60" height="40" as="geometry">
            <mxRectangle width="60" height="40" as="alternateBounds" />
          </mxGeometry>
        </mxCell>
        <mxCell id="ZeO_S6Ifk-VQ_fXQaw0C-10" value="" style="shape=tableRow;horizontal=0;startSize=0;swimlaneHead=0;swimlaneBody=0;strokeColor=inherit;top=0;left=0;bottom=0;right=0;collapsible=0;dropTarget=0;fillColor=none;points=[[0,0.5],[1,0.5]];portConstraint=eastwest;fontSize=16;sketch=1;hachureGap=4;jiggle=2;curveFitting=1;fontFamily=Architects Daughter;fontSource=https%3A%2F%2Ffonts.googleapis.com%2Fcss%3Ffamily%3DArchitects%2BDaughter;" vertex="1" parent="ZeO_S6Ifk-VQ_fXQaw0C-1">
          <mxGeometry y="80" width="180" height="40" as="geometry" />
        </mxCell>
        <mxCell id="ZeO_S6Ifk-VQ_fXQaw0C-11" value="" style="shape=partialRectangle;html=1;whiteSpace=wrap;connectable=0;strokeColor=inherit;overflow=hidden;fillColor=none;top=0;left=0;bottom=0;right=0;pointerEvents=1;fontSize=16;sketch=1;hachureGap=4;jiggle=2;curveFitting=1;fontFamily=Architects Daughter;fontSource=https%3A%2F%2Ffonts.googleapis.com%2Fcss%3Ffamily%3DArchitects%2BDaughter;" vertex="1" parent="ZeO_S6Ifk-VQ_fXQaw0C-10">
          <mxGeometry width="60" height="40" as="geometry">
            <mxRectangle width="60" height="40" as="alternateBounds" />
          </mxGeometry>
        </mxCell>
        <mxCell id="ZeO_S6Ifk-VQ_fXQaw0C-12" value="" style="shape=partialRectangle;html=1;whiteSpace=wrap;connectable=0;strokeColor=inherit;overflow=hidden;fillColor=none;top=0;left=0;bottom=0;right=0;pointerEvents=1;fontSize=16;sketch=1;hachureGap=4;jiggle=2;curveFitting=1;fontFamily=Architects Daughter;fontSource=https%3A%2F%2Ffonts.googleapis.com%2Fcss%3Ffamily%3DArchitects%2BDaughter;" vertex="1" parent="ZeO_S6Ifk-VQ_fXQaw0C-10">
          <mxGeometry x="60" width="60" height="40" as="geometry">
            <mxRectangle width="60" height="40" as="alternateBounds" />
          </mxGeometry>
        </mxCell>
        <mxCell id="ZeO_S6Ifk-VQ_fXQaw0C-13" value="" style="shape=partialRectangle;html=1;whiteSpace=wrap;connectable=0;strokeColor=inherit;overflow=hidden;fillColor=none;top=0;left=0;bottom=0;right=0;pointerEvents=1;fontSize=16;sketch=1;hachureGap=4;jiggle=2;curveFitting=1;fontFamily=Architects Daughter;fontSource=https%3A%2F%2Ffonts.googleapis.com%2Fcss%3Ffamily%3DArchitects%2BDaughter;" vertex="1" parent="ZeO_S6Ifk-VQ_fXQaw0C-10">
          <mxGeometry x="120" width="60" height="40" as="geometry">
            <mxRectangle width="60" height="40" as="alternateBounds" />
          </mxGeometry>
        </mxCell>
        <mxCell id="ZeO_S6Ifk-VQ_fXQaw0C-41" value="" style="shape=table;startSize=0;container=1;collapsible=0;childLayout=tableLayout;fontSize=16;sketch=1;hachureGap=4;jiggle=2;curveFitting=1;fontFamily=Architects Daughter;fontSource=https%3A%2F%2Ffonts.googleapis.com%2Fcss%3Ffamily%3DArchitects%2BDaughter;" vertex="1" parent="1">
          <mxGeometry x="511.5" y="800" width="180" height="120" as="geometry" />
        </mxCell>
        <mxCell id="ZeO_S6Ifk-VQ_fXQaw0C-42" value="" style="shape=tableRow;horizontal=0;startSize=0;swimlaneHead=0;swimlaneBody=0;strokeColor=inherit;top=0;left=0;bottom=0;right=0;collapsible=0;dropTarget=0;fillColor=none;points=[[0,0.5],[1,0.5]];portConstraint=eastwest;fontSize=16;sketch=1;hachureGap=4;jiggle=2;curveFitting=1;fontFamily=Architects Daughter;fontSource=https%3A%2F%2Ffonts.googleapis.com%2Fcss%3Ffamily%3DArchitects%2BDaughter;" vertex="1" parent="ZeO_S6Ifk-VQ_fXQaw0C-41">
          <mxGeometry width="180" height="40" as="geometry" />
        </mxCell>
        <mxCell id="ZeO_S6Ifk-VQ_fXQaw0C-43" value="" style="shape=partialRectangle;html=1;whiteSpace=wrap;connectable=0;strokeColor=inherit;overflow=hidden;fillColor=none;top=0;left=0;bottom=0;right=0;pointerEvents=1;fontSize=16;sketch=1;hachureGap=4;jiggle=2;curveFitting=1;fontFamily=Architects Daughter;fontSource=https%3A%2F%2Ffonts.googleapis.com%2Fcss%3Ffamily%3DArchitects%2BDaughter;" vertex="1" parent="ZeO_S6Ifk-VQ_fXQaw0C-42">
          <mxGeometry width="60" height="40" as="geometry">
            <mxRectangle width="60" height="40" as="alternateBounds" />
          </mxGeometry>
        </mxCell>
        <mxCell id="ZeO_S6Ifk-VQ_fXQaw0C-44" value="" style="shape=partialRectangle;html=1;whiteSpace=wrap;connectable=0;strokeColor=inherit;overflow=hidden;fillColor=none;top=0;left=0;bottom=0;right=0;pointerEvents=1;fontSize=16;sketch=1;hachureGap=4;jiggle=2;curveFitting=1;fontFamily=Architects Daughter;fontSource=https%3A%2F%2Ffonts.googleapis.com%2Fcss%3Ffamily%3DArchitects%2BDaughter;" vertex="1" parent="ZeO_S6Ifk-VQ_fXQaw0C-42">
          <mxGeometry x="60" width="60" height="40" as="geometry">
            <mxRectangle width="60" height="40" as="alternateBounds" />
          </mxGeometry>
        </mxCell>
        <mxCell id="ZeO_S6Ifk-VQ_fXQaw0C-45" value="" style="shape=partialRectangle;html=1;whiteSpace=wrap;connectable=0;strokeColor=inherit;overflow=hidden;fillColor=none;top=0;left=0;bottom=0;right=0;pointerEvents=1;fontSize=16;sketch=1;hachureGap=4;jiggle=2;curveFitting=1;fontFamily=Architects Daughter;fontSource=https%3A%2F%2Ffonts.googleapis.com%2Fcss%3Ffamily%3DArchitects%2BDaughter;" vertex="1" parent="ZeO_S6Ifk-VQ_fXQaw0C-42">
          <mxGeometry x="120" width="60" height="40" as="geometry">
            <mxRectangle width="60" height="40" as="alternateBounds" />
          </mxGeometry>
        </mxCell>
        <mxCell id="ZeO_S6Ifk-VQ_fXQaw0C-46" value="" style="shape=tableRow;horizontal=0;startSize=0;swimlaneHead=0;swimlaneBody=0;strokeColor=inherit;top=0;left=0;bottom=0;right=0;collapsible=0;dropTarget=0;fillColor=none;points=[[0,0.5],[1,0.5]];portConstraint=eastwest;fontSize=16;sketch=1;hachureGap=4;jiggle=2;curveFitting=1;fontFamily=Architects Daughter;fontSource=https%3A%2F%2Ffonts.googleapis.com%2Fcss%3Ffamily%3DArchitects%2BDaughter;" vertex="1" parent="ZeO_S6Ifk-VQ_fXQaw0C-41">
          <mxGeometry y="40" width="180" height="40" as="geometry" />
        </mxCell>
        <mxCell id="ZeO_S6Ifk-VQ_fXQaw0C-47" value="" style="shape=partialRectangle;html=1;whiteSpace=wrap;connectable=0;strokeColor=inherit;overflow=hidden;fillColor=none;top=0;left=0;bottom=0;right=0;pointerEvents=1;fontSize=16;sketch=1;hachureGap=4;jiggle=2;curveFitting=1;fontFamily=Architects Daughter;fontSource=https%3A%2F%2Ffonts.googleapis.com%2Fcss%3Ffamily%3DArchitects%2BDaughter;" vertex="1" parent="ZeO_S6Ifk-VQ_fXQaw0C-46">
          <mxGeometry width="60" height="40" as="geometry">
            <mxRectangle width="60" height="40" as="alternateBounds" />
          </mxGeometry>
        </mxCell>
        <mxCell id="ZeO_S6Ifk-VQ_fXQaw0C-48" value="" style="shape=partialRectangle;html=1;whiteSpace=wrap;connectable=0;strokeColor=inherit;overflow=hidden;fillColor=none;top=0;left=0;bottom=0;right=0;pointerEvents=1;fontSize=16;sketch=1;hachureGap=4;jiggle=2;curveFitting=1;fontFamily=Architects Daughter;fontSource=https%3A%2F%2Ffonts.googleapis.com%2Fcss%3Ffamily%3DArchitects%2BDaughter;" vertex="1" parent="ZeO_S6Ifk-VQ_fXQaw0C-46">
          <mxGeometry x="60" width="60" height="40" as="geometry">
            <mxRectangle width="60" height="40" as="alternateBounds" />
          </mxGeometry>
        </mxCell>
        <mxCell id="ZeO_S6Ifk-VQ_fXQaw0C-49" value="" style="shape=partialRectangle;html=1;whiteSpace=wrap;connectable=0;strokeColor=inherit;overflow=hidden;fillColor=none;top=0;left=0;bottom=0;right=0;pointerEvents=1;fontSize=16;sketch=1;hachureGap=4;jiggle=2;curveFitting=1;fontFamily=Architects Daughter;fontSource=https%3A%2F%2Ffonts.googleapis.com%2Fcss%3Ffamily%3DArchitects%2BDaughter;" vertex="1" parent="ZeO_S6Ifk-VQ_fXQaw0C-46">
          <mxGeometry x="120" width="60" height="40" as="geometry">
            <mxRectangle width="60" height="40" as="alternateBounds" />
          </mxGeometry>
        </mxCell>
        <mxCell id="ZeO_S6Ifk-VQ_fXQaw0C-50" value="" style="shape=tableRow;horizontal=0;startSize=0;swimlaneHead=0;swimlaneBody=0;strokeColor=inherit;top=0;left=0;bottom=0;right=0;collapsible=0;dropTarget=0;fillColor=none;points=[[0,0.5],[1,0.5]];portConstraint=eastwest;fontSize=16;sketch=1;hachureGap=4;jiggle=2;curveFitting=1;fontFamily=Architects Daughter;fontSource=https%3A%2F%2Ffonts.googleapis.com%2Fcss%3Ffamily%3DArchitects%2BDaughter;" vertex="1" parent="ZeO_S6Ifk-VQ_fXQaw0C-41">
          <mxGeometry y="80" width="180" height="40" as="geometry" />
        </mxCell>
        <mxCell id="ZeO_S6Ifk-VQ_fXQaw0C-51" value="" style="shape=partialRectangle;html=1;whiteSpace=wrap;connectable=0;strokeColor=inherit;overflow=hidden;fillColor=none;top=0;left=0;bottom=0;right=0;pointerEvents=1;fontSize=16;sketch=1;hachureGap=4;jiggle=2;curveFitting=1;fontFamily=Architects Daughter;fontSource=https%3A%2F%2Ffonts.googleapis.com%2Fcss%3Ffamily%3DArchitects%2BDaughter;" vertex="1" parent="ZeO_S6Ifk-VQ_fXQaw0C-50">
          <mxGeometry width="60" height="40" as="geometry">
            <mxRectangle width="60" height="40" as="alternateBounds" />
          </mxGeometry>
        </mxCell>
        <mxCell id="ZeO_S6Ifk-VQ_fXQaw0C-52" value="" style="shape=partialRectangle;html=1;whiteSpace=wrap;connectable=0;strokeColor=inherit;overflow=hidden;fillColor=none;top=0;left=0;bottom=0;right=0;pointerEvents=1;fontSize=16;sketch=1;hachureGap=4;jiggle=2;curveFitting=1;fontFamily=Architects Daughter;fontSource=https%3A%2F%2Ffonts.googleapis.com%2Fcss%3Ffamily%3DArchitects%2BDaughter;" vertex="1" parent="ZeO_S6Ifk-VQ_fXQaw0C-50">
          <mxGeometry x="60" width="60" height="40" as="geometry">
            <mxRectangle width="60" height="40" as="alternateBounds" />
          </mxGeometry>
        </mxCell>
        <mxCell id="ZeO_S6Ifk-VQ_fXQaw0C-53" value="" style="shape=partialRectangle;html=1;whiteSpace=wrap;connectable=0;strokeColor=inherit;overflow=hidden;fillColor=none;top=0;left=0;bottom=0;right=0;pointerEvents=1;fontSize=16;sketch=1;hachureGap=4;jiggle=2;curveFitting=1;fontFamily=Architects Daughter;fontSource=https%3A%2F%2Ffonts.googleapis.com%2Fcss%3Ffamily%3DArchitects%2BDaughter;" vertex="1" parent="ZeO_S6Ifk-VQ_fXQaw0C-50">
          <mxGeometry x="120" width="60" height="40" as="geometry">
            <mxRectangle width="60" height="40" as="alternateBounds" />
          </mxGeometry>
        </mxCell>
        <mxCell id="ZeO_S6Ifk-VQ_fXQaw0C-54" value="&lt;font face=&quot;Verdana&quot;&gt;0&lt;/font&gt;" style="text;strokeColor=none;align=center;fillColor=none;html=1;verticalAlign=middle;whiteSpace=wrap;rounded=0;fontFamily=Architects Daughter;fontSource=https%3A%2F%2Ffonts.googleapis.com%2Fcss%3Ffamily%3DArchitects%2BDaughter;" vertex="1" parent="1">
          <mxGeometry x="290" y="810" width="20" height="30" as="geometry" />
        </mxCell>
        <mxCell id="ZeO_S6Ifk-VQ_fXQaw0C-55" value="&lt;font face=&quot;Verdana&quot;&gt;0&lt;/font&gt;" style="text;strokeColor=none;align=center;fillColor=none;html=1;verticalAlign=middle;whiteSpace=wrap;rounded=0;fontFamily=Architects Daughter;fontSource=https%3A%2F%2Ffonts.googleapis.com%2Fcss%3Ffamily%3DArchitects%2BDaughter;" vertex="1" parent="1">
          <mxGeometry x="290" y="845" width="20" height="30" as="geometry" />
        </mxCell>
        <mxCell id="ZeO_S6Ifk-VQ_fXQaw0C-56" value="&lt;font face=&quot;Verdana&quot;&gt;0&lt;/font&gt;" style="text;strokeColor=none;align=center;fillColor=none;html=1;verticalAlign=middle;whiteSpace=wrap;rounded=0;fontFamily=Architects Daughter;fontSource=https%3A%2F%2Ffonts.googleapis.com%2Fcss%3Ffamily%3DArchitects%2BDaughter;" vertex="1" parent="1">
          <mxGeometry x="290" y="890" width="20" height="30" as="geometry" />
        </mxCell>
        <mxCell id="ZeO_S6Ifk-VQ_fXQaw0C-57" value="&lt;font face=&quot;Verdana&quot;&gt;0&lt;/font&gt;" style="text;strokeColor=none;align=center;fillColor=none;html=1;verticalAlign=middle;whiteSpace=wrap;rounded=0;fontFamily=Architects Daughter;fontSource=https%3A%2F%2Ffonts.googleapis.com%2Fcss%3Ffamily%3DArchitects%2BDaughter;" vertex="1" parent="1">
          <mxGeometry x="290" y="930" width="20" height="30" as="geometry" />
        </mxCell>
        <mxCell id="ZeO_S6Ifk-VQ_fXQaw0C-58" value="" style="shape=partialRectangle;html=1;whiteSpace=wrap;connectable=0;strokeColor=inherit;overflow=hidden;fillColor=none;top=0;left=0;bottom=0;right=0;pointerEvents=1;fontSize=16;sketch=1;hachureGap=4;jiggle=2;curveFitting=1;fontFamily=Architects Daughter;fontSource=https%3A%2F%2Ffonts.googleapis.com%2Fcss%3Ffamily%3DArchitects%2BDaughter;" vertex="1" parent="1">
          <mxGeometry x="401.5" y="890" width="60" height="40" as="geometry">
            <mxRectangle width="60" height="40" as="alternateBounds" />
          </mxGeometry>
        </mxCell>
        <mxCell id="ZeO_S6Ifk-VQ_fXQaw0C-59" value="" style="shape=table;startSize=0;container=1;collapsible=0;childLayout=tableLayout;fontSize=16;sketch=1;hachureGap=4;jiggle=2;curveFitting=1;fontFamily=Architects Daughter;fontSource=https%3A%2F%2Ffonts.googleapis.com%2Fcss%3Ffamily%3DArchitects%2BDaughter;" vertex="1" parent="1">
          <mxGeometry x="331.5" y="920" width="180" height="120" as="geometry" />
        </mxCell>
        <mxCell id="ZeO_S6Ifk-VQ_fXQaw0C-60" value="" style="shape=tableRow;horizontal=0;startSize=0;swimlaneHead=0;swimlaneBody=0;strokeColor=inherit;top=0;left=0;bottom=0;right=0;collapsible=0;dropTarget=0;fillColor=none;points=[[0,0.5],[1,0.5]];portConstraint=eastwest;fontSize=16;sketch=1;hachureGap=4;jiggle=2;curveFitting=1;fontFamily=Architects Daughter;fontSource=https%3A%2F%2Ffonts.googleapis.com%2Fcss%3Ffamily%3DArchitects%2BDaughter;" vertex="1" parent="ZeO_S6Ifk-VQ_fXQaw0C-59">
          <mxGeometry width="180" height="40" as="geometry" />
        </mxCell>
        <mxCell id="ZeO_S6Ifk-VQ_fXQaw0C-61" value="" style="shape=partialRectangle;html=1;whiteSpace=wrap;connectable=0;strokeColor=inherit;overflow=hidden;fillColor=none;top=0;left=0;bottom=0;right=0;pointerEvents=1;fontSize=16;sketch=1;hachureGap=4;jiggle=2;curveFitting=1;fontFamily=Architects Daughter;fontSource=https%3A%2F%2Ffonts.googleapis.com%2Fcss%3Ffamily%3DArchitects%2BDaughter;" vertex="1" parent="ZeO_S6Ifk-VQ_fXQaw0C-60">
          <mxGeometry width="60" height="40" as="geometry">
            <mxRectangle width="60" height="40" as="alternateBounds" />
          </mxGeometry>
        </mxCell>
        <mxCell id="ZeO_S6Ifk-VQ_fXQaw0C-62" value="" style="shape=partialRectangle;html=1;whiteSpace=wrap;connectable=0;strokeColor=inherit;overflow=hidden;fillColor=none;top=0;left=0;bottom=0;right=0;pointerEvents=1;fontSize=16;sketch=1;hachureGap=4;jiggle=2;curveFitting=1;fontFamily=Architects Daughter;fontSource=https%3A%2F%2Ffonts.googleapis.com%2Fcss%3Ffamily%3DArchitects%2BDaughter;" vertex="1" parent="ZeO_S6Ifk-VQ_fXQaw0C-60">
          <mxGeometry x="60" width="60" height="40" as="geometry">
            <mxRectangle width="60" height="40" as="alternateBounds" />
          </mxGeometry>
        </mxCell>
        <mxCell id="ZeO_S6Ifk-VQ_fXQaw0C-63" value="" style="shape=partialRectangle;html=1;whiteSpace=wrap;connectable=0;strokeColor=inherit;overflow=hidden;fillColor=none;top=0;left=0;bottom=0;right=0;pointerEvents=1;fontSize=16;sketch=1;hachureGap=4;jiggle=2;curveFitting=1;fontFamily=Architects Daughter;fontSource=https%3A%2F%2Ffonts.googleapis.com%2Fcss%3Ffamily%3DArchitects%2BDaughter;" vertex="1" parent="ZeO_S6Ifk-VQ_fXQaw0C-60">
          <mxGeometry x="120" width="60" height="40" as="geometry">
            <mxRectangle width="60" height="40" as="alternateBounds" />
          </mxGeometry>
        </mxCell>
        <mxCell id="ZeO_S6Ifk-VQ_fXQaw0C-64" value="" style="shape=tableRow;horizontal=0;startSize=0;swimlaneHead=0;swimlaneBody=0;strokeColor=inherit;top=0;left=0;bottom=0;right=0;collapsible=0;dropTarget=0;fillColor=none;points=[[0,0.5],[1,0.5]];portConstraint=eastwest;fontSize=16;sketch=1;hachureGap=4;jiggle=2;curveFitting=1;fontFamily=Architects Daughter;fontSource=https%3A%2F%2Ffonts.googleapis.com%2Fcss%3Ffamily%3DArchitects%2BDaughter;" vertex="1" parent="ZeO_S6Ifk-VQ_fXQaw0C-59">
          <mxGeometry y="40" width="180" height="40" as="geometry" />
        </mxCell>
        <mxCell id="ZeO_S6Ifk-VQ_fXQaw0C-65" value="" style="shape=partialRectangle;html=1;whiteSpace=wrap;connectable=0;strokeColor=inherit;overflow=hidden;fillColor=none;top=0;left=0;bottom=0;right=0;pointerEvents=1;fontSize=16;sketch=1;hachureGap=4;jiggle=2;curveFitting=1;fontFamily=Architects Daughter;fontSource=https%3A%2F%2Ffonts.googleapis.com%2Fcss%3Ffamily%3DArchitects%2BDaughter;" vertex="1" parent="ZeO_S6Ifk-VQ_fXQaw0C-64">
          <mxGeometry width="60" height="40" as="geometry">
            <mxRectangle width="60" height="40" as="alternateBounds" />
          </mxGeometry>
        </mxCell>
        <mxCell id="ZeO_S6Ifk-VQ_fXQaw0C-66" value="" style="shape=partialRectangle;html=1;whiteSpace=wrap;connectable=0;strokeColor=inherit;overflow=hidden;fillColor=none;top=0;left=0;bottom=0;right=0;pointerEvents=1;fontSize=16;sketch=1;hachureGap=4;jiggle=2;curveFitting=1;fontFamily=Architects Daughter;fontSource=https%3A%2F%2Ffonts.googleapis.com%2Fcss%3Ffamily%3DArchitects%2BDaughter;" vertex="1" parent="ZeO_S6Ifk-VQ_fXQaw0C-64">
          <mxGeometry x="60" width="60" height="40" as="geometry">
            <mxRectangle width="60" height="40" as="alternateBounds" />
          </mxGeometry>
        </mxCell>
        <mxCell id="ZeO_S6Ifk-VQ_fXQaw0C-67" value="" style="shape=partialRectangle;html=1;whiteSpace=wrap;connectable=0;strokeColor=inherit;overflow=hidden;fillColor=none;top=0;left=0;bottom=0;right=0;pointerEvents=1;fontSize=16;sketch=1;hachureGap=4;jiggle=2;curveFitting=1;fontFamily=Architects Daughter;fontSource=https%3A%2F%2Ffonts.googleapis.com%2Fcss%3Ffamily%3DArchitects%2BDaughter;" vertex="1" parent="ZeO_S6Ifk-VQ_fXQaw0C-64">
          <mxGeometry x="120" width="60" height="40" as="geometry">
            <mxRectangle width="60" height="40" as="alternateBounds" />
          </mxGeometry>
        </mxCell>
        <mxCell id="ZeO_S6Ifk-VQ_fXQaw0C-68" value="" style="shape=tableRow;horizontal=0;startSize=0;swimlaneHead=0;swimlaneBody=0;strokeColor=inherit;top=0;left=0;bottom=0;right=0;collapsible=0;dropTarget=0;fillColor=none;points=[[0,0.5],[1,0.5]];portConstraint=eastwest;fontSize=16;sketch=1;hachureGap=4;jiggle=2;curveFitting=1;fontFamily=Architects Daughter;fontSource=https%3A%2F%2Ffonts.googleapis.com%2Fcss%3Ffamily%3DArchitects%2BDaughter;" vertex="1" parent="ZeO_S6Ifk-VQ_fXQaw0C-59">
          <mxGeometry y="80" width="180" height="40" as="geometry" />
        </mxCell>
        <mxCell id="ZeO_S6Ifk-VQ_fXQaw0C-69" value="" style="shape=partialRectangle;html=1;whiteSpace=wrap;connectable=0;strokeColor=inherit;overflow=hidden;fillColor=none;top=0;left=0;bottom=0;right=0;pointerEvents=1;fontSize=16;sketch=1;hachureGap=4;jiggle=2;curveFitting=1;fontFamily=Architects Daughter;fontSource=https%3A%2F%2Ffonts.googleapis.com%2Fcss%3Ffamily%3DArchitects%2BDaughter;" vertex="1" parent="ZeO_S6Ifk-VQ_fXQaw0C-68">
          <mxGeometry width="60" height="40" as="geometry">
            <mxRectangle width="60" height="40" as="alternateBounds" />
          </mxGeometry>
        </mxCell>
        <mxCell id="ZeO_S6Ifk-VQ_fXQaw0C-70" value="" style="shape=partialRectangle;html=1;whiteSpace=wrap;connectable=0;strokeColor=inherit;overflow=hidden;fillColor=none;top=0;left=0;bottom=0;right=0;pointerEvents=1;fontSize=16;sketch=1;hachureGap=4;jiggle=2;curveFitting=1;fontFamily=Architects Daughter;fontSource=https%3A%2F%2Ffonts.googleapis.com%2Fcss%3Ffamily%3DArchitects%2BDaughter;" vertex="1" parent="ZeO_S6Ifk-VQ_fXQaw0C-68">
          <mxGeometry x="60" width="60" height="40" as="geometry">
            <mxRectangle width="60" height="40" as="alternateBounds" />
          </mxGeometry>
        </mxCell>
        <mxCell id="ZeO_S6Ifk-VQ_fXQaw0C-71" value="" style="shape=partialRectangle;html=1;whiteSpace=wrap;connectable=0;strokeColor=inherit;overflow=hidden;fillColor=none;top=0;left=0;bottom=0;right=0;pointerEvents=1;fontSize=16;sketch=1;hachureGap=4;jiggle=2;curveFitting=1;fontFamily=Architects Daughter;fontSource=https%3A%2F%2Ffonts.googleapis.com%2Fcss%3Ffamily%3DArchitects%2BDaughter;" vertex="1" parent="ZeO_S6Ifk-VQ_fXQaw0C-68">
          <mxGeometry x="120" width="60" height="40" as="geometry">
            <mxRectangle width="60" height="40" as="alternateBounds" />
          </mxGeometry>
        </mxCell>
        <mxCell id="ZeO_S6Ifk-VQ_fXQaw0C-72" value="" style="shape=table;startSize=0;container=1;collapsible=0;childLayout=tableLayout;fontSize=16;sketch=1;hachureGap=4;jiggle=2;curveFitting=1;fontFamily=Architects Daughter;fontSource=https%3A%2F%2Ffonts.googleapis.com%2Fcss%3Ffamily%3DArchitects%2BDaughter;" vertex="1" parent="1">
          <mxGeometry x="511.5" y="920" width="180" height="120" as="geometry" />
        </mxCell>
        <mxCell id="ZeO_S6Ifk-VQ_fXQaw0C-73" value="" style="shape=tableRow;horizontal=0;startSize=0;swimlaneHead=0;swimlaneBody=0;strokeColor=inherit;top=0;left=0;bottom=0;right=0;collapsible=0;dropTarget=0;fillColor=none;points=[[0,0.5],[1,0.5]];portConstraint=eastwest;fontSize=16;sketch=1;hachureGap=4;jiggle=2;curveFitting=1;fontFamily=Architects Daughter;fontSource=https%3A%2F%2Ffonts.googleapis.com%2Fcss%3Ffamily%3DArchitects%2BDaughter;" vertex="1" parent="ZeO_S6Ifk-VQ_fXQaw0C-72">
          <mxGeometry width="180" height="40" as="geometry" />
        </mxCell>
        <mxCell id="ZeO_S6Ifk-VQ_fXQaw0C-74" value="" style="shape=partialRectangle;html=1;whiteSpace=wrap;connectable=0;strokeColor=inherit;overflow=hidden;fillColor=none;top=0;left=0;bottom=0;right=0;pointerEvents=1;fontSize=16;sketch=1;hachureGap=4;jiggle=2;curveFitting=1;fontFamily=Architects Daughter;fontSource=https%3A%2F%2Ffonts.googleapis.com%2Fcss%3Ffamily%3DArchitects%2BDaughter;" vertex="1" parent="ZeO_S6Ifk-VQ_fXQaw0C-73">
          <mxGeometry width="60" height="40" as="geometry">
            <mxRectangle width="60" height="40" as="alternateBounds" />
          </mxGeometry>
        </mxCell>
        <mxCell id="ZeO_S6Ifk-VQ_fXQaw0C-75" value="" style="shape=partialRectangle;html=1;whiteSpace=wrap;connectable=0;strokeColor=inherit;overflow=hidden;fillColor=none;top=0;left=0;bottom=0;right=0;pointerEvents=1;fontSize=16;sketch=1;hachureGap=4;jiggle=2;curveFitting=1;fontFamily=Architects Daughter;fontSource=https%3A%2F%2Ffonts.googleapis.com%2Fcss%3Ffamily%3DArchitects%2BDaughter;" vertex="1" parent="ZeO_S6Ifk-VQ_fXQaw0C-73">
          <mxGeometry x="60" width="60" height="40" as="geometry">
            <mxRectangle width="60" height="40" as="alternateBounds" />
          </mxGeometry>
        </mxCell>
        <mxCell id="ZeO_S6Ifk-VQ_fXQaw0C-76" value="" style="shape=partialRectangle;html=1;whiteSpace=wrap;connectable=0;strokeColor=inherit;overflow=hidden;fillColor=none;top=0;left=0;bottom=0;right=0;pointerEvents=1;fontSize=16;sketch=1;hachureGap=4;jiggle=2;curveFitting=1;fontFamily=Architects Daughter;fontSource=https%3A%2F%2Ffonts.googleapis.com%2Fcss%3Ffamily%3DArchitects%2BDaughter;" vertex="1" parent="ZeO_S6Ifk-VQ_fXQaw0C-73">
          <mxGeometry x="120" width="60" height="40" as="geometry">
            <mxRectangle width="60" height="40" as="alternateBounds" />
          </mxGeometry>
        </mxCell>
        <mxCell id="ZeO_S6Ifk-VQ_fXQaw0C-77" value="" style="shape=tableRow;horizontal=0;startSize=0;swimlaneHead=0;swimlaneBody=0;strokeColor=inherit;top=0;left=0;bottom=0;right=0;collapsible=0;dropTarget=0;fillColor=none;points=[[0,0.5],[1,0.5]];portConstraint=eastwest;fontSize=16;sketch=1;hachureGap=4;jiggle=2;curveFitting=1;fontFamily=Architects Daughter;fontSource=https%3A%2F%2Ffonts.googleapis.com%2Fcss%3Ffamily%3DArchitects%2BDaughter;" vertex="1" parent="ZeO_S6Ifk-VQ_fXQaw0C-72">
          <mxGeometry y="40" width="180" height="40" as="geometry" />
        </mxCell>
        <mxCell id="ZeO_S6Ifk-VQ_fXQaw0C-78" value="" style="shape=partialRectangle;html=1;whiteSpace=wrap;connectable=0;strokeColor=inherit;overflow=hidden;fillColor=none;top=0;left=0;bottom=0;right=0;pointerEvents=1;fontSize=16;sketch=1;hachureGap=4;jiggle=2;curveFitting=1;fontFamily=Architects Daughter;fontSource=https%3A%2F%2Ffonts.googleapis.com%2Fcss%3Ffamily%3DArchitects%2BDaughter;" vertex="1" parent="ZeO_S6Ifk-VQ_fXQaw0C-77">
          <mxGeometry width="60" height="40" as="geometry">
            <mxRectangle width="60" height="40" as="alternateBounds" />
          </mxGeometry>
        </mxCell>
        <mxCell id="ZeO_S6Ifk-VQ_fXQaw0C-79" value="" style="shape=partialRectangle;html=1;whiteSpace=wrap;connectable=0;strokeColor=inherit;overflow=hidden;fillColor=none;top=0;left=0;bottom=0;right=0;pointerEvents=1;fontSize=16;sketch=1;hachureGap=4;jiggle=2;curveFitting=1;fontFamily=Architects Daughter;fontSource=https%3A%2F%2Ffonts.googleapis.com%2Fcss%3Ffamily%3DArchitects%2BDaughter;" vertex="1" parent="ZeO_S6Ifk-VQ_fXQaw0C-77">
          <mxGeometry x="60" width="60" height="40" as="geometry">
            <mxRectangle width="60" height="40" as="alternateBounds" />
          </mxGeometry>
        </mxCell>
        <mxCell id="ZeO_S6Ifk-VQ_fXQaw0C-80" value="" style="shape=partialRectangle;html=1;whiteSpace=wrap;connectable=0;strokeColor=inherit;overflow=hidden;fillColor=none;top=0;left=0;bottom=0;right=0;pointerEvents=1;fontSize=16;sketch=1;hachureGap=4;jiggle=2;curveFitting=1;fontFamily=Architects Daughter;fontSource=https%3A%2F%2Ffonts.googleapis.com%2Fcss%3Ffamily%3DArchitects%2BDaughter;" vertex="1" parent="ZeO_S6Ifk-VQ_fXQaw0C-77">
          <mxGeometry x="120" width="60" height="40" as="geometry">
            <mxRectangle width="60" height="40" as="alternateBounds" />
          </mxGeometry>
        </mxCell>
        <mxCell id="ZeO_S6Ifk-VQ_fXQaw0C-81" value="" style="shape=tableRow;horizontal=0;startSize=0;swimlaneHead=0;swimlaneBody=0;strokeColor=inherit;top=0;left=0;bottom=0;right=0;collapsible=0;dropTarget=0;fillColor=none;points=[[0,0.5],[1,0.5]];portConstraint=eastwest;fontSize=16;sketch=1;hachureGap=4;jiggle=2;curveFitting=1;fontFamily=Architects Daughter;fontSource=https%3A%2F%2Ffonts.googleapis.com%2Fcss%3Ffamily%3DArchitects%2BDaughter;" vertex="1" parent="ZeO_S6Ifk-VQ_fXQaw0C-72">
          <mxGeometry y="80" width="180" height="40" as="geometry" />
        </mxCell>
        <mxCell id="ZeO_S6Ifk-VQ_fXQaw0C-82" value="" style="shape=partialRectangle;html=1;whiteSpace=wrap;connectable=0;strokeColor=inherit;overflow=hidden;fillColor=none;top=0;left=0;bottom=0;right=0;pointerEvents=1;fontSize=16;sketch=1;hachureGap=4;jiggle=2;curveFitting=1;fontFamily=Architects Daughter;fontSource=https%3A%2F%2Ffonts.googleapis.com%2Fcss%3Ffamily%3DArchitects%2BDaughter;" vertex="1" parent="ZeO_S6Ifk-VQ_fXQaw0C-81">
          <mxGeometry width="60" height="40" as="geometry">
            <mxRectangle width="60" height="40" as="alternateBounds" />
          </mxGeometry>
        </mxCell>
        <mxCell id="ZeO_S6Ifk-VQ_fXQaw0C-83" value="" style="shape=partialRectangle;html=1;whiteSpace=wrap;connectable=0;strokeColor=inherit;overflow=hidden;fillColor=none;top=0;left=0;bottom=0;right=0;pointerEvents=1;fontSize=16;sketch=1;hachureGap=4;jiggle=2;curveFitting=1;fontFamily=Architects Daughter;fontSource=https%3A%2F%2Ffonts.googleapis.com%2Fcss%3Ffamily%3DArchitects%2BDaughter;" vertex="1" parent="ZeO_S6Ifk-VQ_fXQaw0C-81">
          <mxGeometry x="60" width="60" height="40" as="geometry">
            <mxRectangle width="60" height="40" as="alternateBounds" />
          </mxGeometry>
        </mxCell>
        <mxCell id="ZeO_S6Ifk-VQ_fXQaw0C-84" value="" style="shape=partialRectangle;html=1;whiteSpace=wrap;connectable=0;strokeColor=inherit;overflow=hidden;fillColor=none;top=0;left=0;bottom=0;right=0;pointerEvents=1;fontSize=16;sketch=1;hachureGap=4;jiggle=2;curveFitting=1;fontFamily=Architects Daughter;fontSource=https%3A%2F%2Ffonts.googleapis.com%2Fcss%3Ffamily%3DArchitects%2BDaughter;" vertex="1" parent="ZeO_S6Ifk-VQ_fXQaw0C-81">
          <mxGeometry x="120" width="60" height="40" as="geometry">
            <mxRectangle width="60" height="40" as="alternateBounds" />
          </mxGeometry>
        </mxCell>
        <mxCell id="ZeO_S6Ifk-VQ_fXQaw0C-85" value="" style="shape=partialRectangle;html=1;whiteSpace=wrap;connectable=0;strokeColor=inherit;overflow=hidden;fillColor=none;top=0;left=0;bottom=0;right=0;pointerEvents=1;fontSize=16;sketch=1;hachureGap=4;jiggle=2;curveFitting=1;fontFamily=Architects Daughter;fontSource=https%3A%2F%2Ffonts.googleapis.com%2Fcss%3Ffamily%3DArchitects%2BDaughter;" vertex="1" parent="1">
          <mxGeometry x="401.5" y="1010" width="60" height="40" as="geometry">
            <mxRectangle width="60" height="40" as="alternateBounds" />
          </mxGeometry>
        </mxCell>
        <mxCell id="ZeO_S6Ifk-VQ_fXQaw0C-86" value="&lt;font face=&quot;Verdana&quot;&gt;0&lt;/font&gt;" style="text;strokeColor=none;align=center;fillColor=none;html=1;verticalAlign=middle;whiteSpace=wrap;rounded=0;fontFamily=Architects Daughter;fontSource=https%3A%2F%2Ffonts.googleapis.com%2Fcss%3Ffamily%3DArchitects%2BDaughter;" vertex="1" parent="1">
          <mxGeometry x="290" y="965" width="20" height="30" as="geometry" />
        </mxCell>
        <mxCell id="ZeO_S6Ifk-VQ_fXQaw0C-87" value="&lt;font face=&quot;Verdana&quot;&gt;0&lt;/font&gt;" style="text;strokeColor=none;align=center;fillColor=none;html=1;verticalAlign=middle;whiteSpace=wrap;rounded=0;fontFamily=Architects Daughter;fontSource=https%3A%2F%2Ffonts.googleapis.com%2Fcss%3Ffamily%3DArchitects%2BDaughter;" vertex="1" parent="1">
          <mxGeometry x="290" y="1010" width="20" height="30" as="geometry" />
        </mxCell>
        <mxCell id="ZeO_S6Ifk-VQ_fXQaw0C-88" value="&lt;font face=&quot;Verdana&quot;&gt;0&lt;/font&gt;" style="text;strokeColor=none;align=center;fillColor=none;html=1;verticalAlign=middle;whiteSpace=wrap;rounded=0;fontFamily=Architects Daughter;fontSource=https%3A%2F%2Ffonts.googleapis.com%2Fcss%3Ffamily%3DArchitects%2BDaughter;" vertex="1" parent="1">
          <mxGeometry x="357" y="750" width="20" height="30" as="geometry" />
        </mxCell>
        <mxCell id="ZeO_S6Ifk-VQ_fXQaw0C-89" value="&lt;font face=&quot;Verdana&quot;&gt;1&lt;/font&gt;" style="text;strokeColor=none;align=center;fillColor=none;html=1;verticalAlign=middle;whiteSpace=wrap;rounded=0;fontFamily=Architects Daughter;fontSource=https%3A%2F%2Ffonts.googleapis.com%2Fcss%3Ffamily%3DArchitects%2BDaughter;" vertex="1" parent="1">
          <mxGeometry x="404" y="750" width="20" height="30" as="geometry" />
        </mxCell>
        <mxCell id="ZeO_S6Ifk-VQ_fXQaw0C-90" value="&lt;font face=&quot;Verdana&quot;&gt;2&lt;/font&gt;" style="text;strokeColor=none;align=center;fillColor=none;html=1;verticalAlign=middle;whiteSpace=wrap;rounded=0;fontFamily=Architects Daughter;fontSource=https%3A%2F%2Ffonts.googleapis.com%2Fcss%3Ffamily%3DArchitects%2BDaughter;" vertex="1" parent="1">
          <mxGeometry x="468" y="750" width="20" height="30" as="geometry" />
        </mxCell>
        <mxCell id="ZeO_S6Ifk-VQ_fXQaw0C-91" value="&lt;font face=&quot;Verdana&quot;&gt;3&lt;/font&gt;" style="text;strokeColor=none;align=center;fillColor=none;html=1;verticalAlign=middle;whiteSpace=wrap;rounded=0;fontFamily=Architects Daughter;fontSource=https%3A%2F%2Ffonts.googleapis.com%2Fcss%3Ffamily%3DArchitects%2BDaughter;" vertex="1" parent="1">
          <mxGeometry x="532.5" y="750" width="18.5" height="30" as="geometry" />
        </mxCell>
        <mxCell id="ZeO_S6Ifk-VQ_fXQaw0C-92" value="&lt;font color=&quot;#ff0000&quot; face=&quot;Verdana&quot;&gt;4&lt;/font&gt;" style="text;strokeColor=none;align=center;fillColor=none;html=1;verticalAlign=middle;whiteSpace=wrap;rounded=0;fontFamily=Architects Daughter;fontSource=https%3A%2F%2Ffonts.googleapis.com%2Fcss%3Ffamily%3DArchitects%2BDaughter;" vertex="1" parent="1">
          <mxGeometry x="584" y="750" width="20" height="30" as="geometry" />
        </mxCell>
        <mxCell id="ZeO_S6Ifk-VQ_fXQaw0C-93" value="&lt;font face=&quot;Verdana&quot;&gt;5&lt;/font&gt;" style="text;strokeColor=none;align=center;fillColor=none;html=1;verticalAlign=middle;rounded=0;fontFamily=Architects Daughter;fontSource=https%3A%2F%2Ffonts.googleapis.com%2Fcss%3Ffamily%3DArchitects%2BDaughter;" vertex="1" parent="1">
          <mxGeometry x="650" y="750" width="20" height="30" as="geometry" />
        </mxCell>
        <mxCell id="ZeO_S6Ifk-VQ_fXQaw0C-94" value="A" style="ellipse;whiteSpace=wrap;html=1;aspect=fixed;sketch=1;hachureGap=4;jiggle=2;curveFitting=1;fontFamily=Architects Daughter;fontSource=https%3A%2F%2Ffonts.googleapis.com%2Fcss%3Ffamily%3DArchitects%2BDaughter;" vertex="1" parent="1">
          <mxGeometry x="640" y="1300" width="30" height="30" as="geometry" />
        </mxCell>
        <mxCell id="ZeO_S6Ifk-VQ_fXQaw0C-95" value="B" style="ellipse;whiteSpace=wrap;html=1;aspect=fixed;sketch=1;hachureGap=4;jiggle=2;curveFitting=1;fontFamily=Architects Daughter;fontSource=https%3A%2F%2Ffonts.googleapis.com%2Fcss%3Ffamily%3DArchitects%2BDaughter;" vertex="1" parent="1">
          <mxGeometry x="590.5" y="1350" width="30" height="30" as="geometry" />
        </mxCell>
        <mxCell id="ZeO_S6Ifk-VQ_fXQaw0C-96" value="C" style="ellipse;whiteSpace=wrap;html=1;aspect=fixed;sketch=1;hachureGap=4;jiggle=2;curveFitting=1;fontFamily=Architects Daughter;fontSource=https%3A%2F%2Ffonts.googleapis.com%2Fcss%3Ffamily%3DArchitects%2BDaughter;" vertex="1" parent="1">
          <mxGeometry x="547.5" y="1400" width="30" height="30" as="geometry" />
        </mxCell>
        <mxCell id="ZeO_S6Ifk-VQ_fXQaw0C-97" value="D" style="ellipse;whiteSpace=wrap;html=1;aspect=fixed;sketch=1;hachureGap=4;jiggle=2;curveFitting=1;fontFamily=Architects Daughter;fontSource=https%3A%2F%2Ffonts.googleapis.com%2Fcss%3Ffamily%3DArchitects%2BDaughter;" vertex="1" parent="1">
          <mxGeometry x="710" y="1370" width="30" height="30" as="geometry" />
        </mxCell>
        <mxCell id="ZeO_S6Ifk-VQ_fXQaw0C-98" value="E" style="ellipse;whiteSpace=wrap;html=1;aspect=fixed;sketch=1;hachureGap=4;jiggle=2;curveFitting=1;fontFamily=Architects Daughter;fontSource=https%3A%2F%2Ffonts.googleapis.com%2Fcss%3Ffamily%3DArchitects%2BDaughter;" vertex="1" parent="1">
          <mxGeometry x="680" y="1420" width="30" height="30" as="geometry" />
        </mxCell>
        <mxCell id="ZeO_S6Ifk-VQ_fXQaw0C-99" value="F" style="ellipse;whiteSpace=wrap;html=1;aspect=fixed;sketch=1;hachureGap=4;jiggle=2;curveFitting=1;fontFamily=Architects Daughter;fontSource=https%3A%2F%2Ffonts.googleapis.com%2Fcss%3Ffamily%3DArchitects%2BDaughter;" vertex="1" parent="1">
          <mxGeometry x="750" y="1430" width="30" height="30" as="geometry" />
        </mxCell>
        <mxCell id="ZeO_S6Ifk-VQ_fXQaw0C-100" value="" style="endArrow=none;html=1;rounded=0;sketch=1;hachureGap=4;jiggle=2;curveFitting=1;fontFamily=Architects Daughter;fontSource=https%3A%2F%2Ffonts.googleapis.com%2Fcss%3Ffamily%3DArchitects%2BDaughter;" edge="1" parent="1">
          <mxGeometry width="50" height="50" relative="1" as="geometry">
            <mxPoint x="610.5" y="1350" as="sourcePoint" />
            <mxPoint x="641" y="1320" as="targetPoint" />
          </mxGeometry>
        </mxCell>
        <mxCell id="ZeO_S6Ifk-VQ_fXQaw0C-101" value="" style="endArrow=none;html=1;rounded=0;sketch=1;hachureGap=4;jiggle=2;curveFitting=1;fontFamily=Architects Daughter;fontSource=https%3A%2F%2Ffonts.googleapis.com%2Fcss%3Ffamily%3DArchitects%2BDaughter;entryX=0;entryY=1;entryDx=0;entryDy=0;" edge="1" parent="1" target="ZeO_S6Ifk-VQ_fXQaw0C-95">
          <mxGeometry width="50" height="50" relative="1" as="geometry">
            <mxPoint x="570" y="1400" as="sourcePoint" />
            <mxPoint x="600.5" y="1370" as="targetPoint" />
          </mxGeometry>
        </mxCell>
        <mxCell id="ZeO_S6Ifk-VQ_fXQaw0C-102" value="" style="endArrow=none;html=1;rounded=0;sketch=1;hachureGap=4;jiggle=2;curveFitting=1;fontFamily=Architects Daughter;fontSource=https%3A%2F%2Ffonts.googleapis.com%2Fcss%3Ffamily%3DArchitects%2BDaughter;" edge="1" parent="1" source="ZeO_S6Ifk-VQ_fXQaw0C-97">
          <mxGeometry width="50" height="50" relative="1" as="geometry">
            <mxPoint x="689.5" y="1350" as="sourcePoint" />
            <mxPoint x="670" y="1320" as="targetPoint" />
          </mxGeometry>
        </mxCell>
        <mxCell id="ZeO_S6Ifk-VQ_fXQaw0C-103" value="" style="endArrow=none;html=1;rounded=0;sketch=1;hachureGap=4;jiggle=2;curveFitting=1;fontFamily=Architects Daughter;fontSource=https%3A%2F%2Ffonts.googleapis.com%2Fcss%3Ffamily%3DArchitects%2BDaughter;entryX=0.388;entryY=1.001;entryDx=0;entryDy=0;entryPerimeter=0;" edge="1" parent="1" target="ZeO_S6Ifk-VQ_fXQaw0C-97">
          <mxGeometry width="50" height="50" relative="1" as="geometry">
            <mxPoint x="700" y="1420" as="sourcePoint" />
            <mxPoint x="725" y="1396" as="targetPoint" />
          </mxGeometry>
        </mxCell>
        <mxCell id="ZeO_S6Ifk-VQ_fXQaw0C-106" value="" style="endArrow=none;html=1;rounded=0;sketch=1;hachureGap=4;jiggle=2;curveFitting=1;fontFamily=Architects Daughter;fontSource=https%3A%2F%2Ffonts.googleapis.com%2Fcss%3Ffamily%3DArchitects%2BDaughter;exitX=0.35;exitY=0.098;exitDx=0;exitDy=0;exitPerimeter=0;" edge="1" parent="1" source="ZeO_S6Ifk-VQ_fXQaw0C-99">
          <mxGeometry width="50" height="50" relative="1" as="geometry">
            <mxPoint x="780" y="1450" as="sourcePoint" />
            <mxPoint x="735" y="1396" as="targetPoint" />
          </mxGeometry>
        </mxCell>
        <mxCell id="ZeO_S6Ifk-VQ_fXQaw0C-107" value="A" style="ellipse;whiteSpace=wrap;html=1;aspect=fixed;sketch=1;hachureGap=4;jiggle=2;curveFitting=1;fontFamily=Architects Daughter;fontSource=https%3A%2F%2Ffonts.googleapis.com%2Fcss%3Ffamily%3DArchitects%2BDaughter;" vertex="1" parent="1">
          <mxGeometry x="617" y="1550" width="30" height="30" as="geometry" />
        </mxCell>
        <mxCell id="ZeO_S6Ifk-VQ_fXQaw0C-108" value="B" style="ellipse;whiteSpace=wrap;html=1;aspect=fixed;sketch=1;hachureGap=4;jiggle=2;curveFitting=1;fontFamily=Architects Daughter;fontSource=https%3A%2F%2Ffonts.googleapis.com%2Fcss%3Ffamily%3DArchitects%2BDaughter;" vertex="1" parent="1">
          <mxGeometry x="567.5" y="1600" width="30" height="30" as="geometry" />
        </mxCell>
        <mxCell id="ZeO_S6Ifk-VQ_fXQaw0C-109" value="C" style="ellipse;whiteSpace=wrap;html=1;aspect=fixed;sketch=1;hachureGap=4;jiggle=2;curveFitting=1;fontFamily=Architects Daughter;fontSource=https%3A%2F%2Ffonts.googleapis.com%2Fcss%3Ffamily%3DArchitects%2BDaughter;" vertex="1" parent="1">
          <mxGeometry x="524.5" y="1650" width="30" height="30" as="geometry" />
        </mxCell>
        <mxCell id="ZeO_S6Ifk-VQ_fXQaw0C-110" value="D" style="ellipse;whiteSpace=wrap;html=1;aspect=fixed;sketch=1;hachureGap=4;jiggle=2;curveFitting=1;fontFamily=Architects Daughter;fontSource=https%3A%2F%2Ffonts.googleapis.com%2Fcss%3Ffamily%3DArchitects%2BDaughter;" vertex="1" parent="1">
          <mxGeometry x="687" y="1620" width="30" height="30" as="geometry" />
        </mxCell>
        <mxCell id="ZeO_S6Ifk-VQ_fXQaw0C-111" value="E" style="ellipse;whiteSpace=wrap;html=1;aspect=fixed;sketch=1;hachureGap=4;jiggle=2;curveFitting=1;fontFamily=Architects Daughter;fontSource=https%3A%2F%2Ffonts.googleapis.com%2Fcss%3Ffamily%3DArchitects%2BDaughter;" vertex="1" parent="1">
          <mxGeometry x="657" y="1670" width="30" height="30" as="geometry" />
        </mxCell>
        <mxCell id="ZeO_S6Ifk-VQ_fXQaw0C-112" value="F" style="ellipse;whiteSpace=wrap;html=1;aspect=fixed;sketch=1;hachureGap=4;jiggle=2;curveFitting=1;fontFamily=Architects Daughter;fontSource=https%3A%2F%2Ffonts.googleapis.com%2Fcss%3Ffamily%3DArchitects%2BDaughter;" vertex="1" parent="1">
          <mxGeometry x="727" y="1680" width="30" height="30" as="geometry" />
        </mxCell>
        <mxCell id="ZeO_S6Ifk-VQ_fXQaw0C-113" value="" style="endArrow=none;html=1;rounded=0;sketch=1;hachureGap=4;jiggle=2;curveFitting=1;fontFamily=Architects Daughter;fontSource=https%3A%2F%2Ffonts.googleapis.com%2Fcss%3Ffamily%3DArchitects%2BDaughter;" edge="1" parent="1">
          <mxGeometry width="50" height="50" relative="1" as="geometry">
            <mxPoint x="587.5" y="1600" as="sourcePoint" />
            <mxPoint x="618" y="1570" as="targetPoint" />
          </mxGeometry>
        </mxCell>
        <mxCell id="ZeO_S6Ifk-VQ_fXQaw0C-114" value="" style="endArrow=none;html=1;rounded=0;sketch=1;hachureGap=4;jiggle=2;curveFitting=1;fontFamily=Architects Daughter;fontSource=https%3A%2F%2Ffonts.googleapis.com%2Fcss%3Ffamily%3DArchitects%2BDaughter;entryX=0;entryY=1;entryDx=0;entryDy=0;" edge="1" parent="1" target="ZeO_S6Ifk-VQ_fXQaw0C-108">
          <mxGeometry width="50" height="50" relative="1" as="geometry">
            <mxPoint x="547" y="1650" as="sourcePoint" />
            <mxPoint x="577.5" y="1620" as="targetPoint" />
          </mxGeometry>
        </mxCell>
        <mxCell id="ZeO_S6Ifk-VQ_fXQaw0C-115" value="" style="endArrow=none;html=1;rounded=0;sketch=1;hachureGap=4;jiggle=2;curveFitting=1;fontFamily=Architects Daughter;fontSource=https%3A%2F%2Ffonts.googleapis.com%2Fcss%3Ffamily%3DArchitects%2BDaughter;" edge="1" parent="1" source="ZeO_S6Ifk-VQ_fXQaw0C-110">
          <mxGeometry width="50" height="50" relative="1" as="geometry">
            <mxPoint x="666.5" y="1600" as="sourcePoint" />
            <mxPoint x="647" y="1570" as="targetPoint" />
          </mxGeometry>
        </mxCell>
        <mxCell id="ZeO_S6Ifk-VQ_fXQaw0C-116" value="" style="endArrow=none;html=1;rounded=0;sketch=1;hachureGap=4;jiggle=2;curveFitting=1;fontFamily=Architects Daughter;fontSource=https%3A%2F%2Ffonts.googleapis.com%2Fcss%3Ffamily%3DArchitects%2BDaughter;entryX=0.388;entryY=1.001;entryDx=0;entryDy=0;entryPerimeter=0;" edge="1" parent="1" target="ZeO_S6Ifk-VQ_fXQaw0C-110">
          <mxGeometry width="50" height="50" relative="1" as="geometry">
            <mxPoint x="677" y="1670" as="sourcePoint" />
            <mxPoint x="702" y="1646" as="targetPoint" />
          </mxGeometry>
        </mxCell>
        <mxCell id="ZeO_S6Ifk-VQ_fXQaw0C-117" value="" style="endArrow=none;html=1;rounded=0;sketch=1;hachureGap=4;jiggle=2;curveFitting=1;fontFamily=Architects Daughter;fontSource=https%3A%2F%2Ffonts.googleapis.com%2Fcss%3Ffamily%3DArchitects%2BDaughter;exitX=0.35;exitY=0.098;exitDx=0;exitDy=0;exitPerimeter=0;" edge="1" parent="1" source="ZeO_S6Ifk-VQ_fXQaw0C-112">
          <mxGeometry width="50" height="50" relative="1" as="geometry">
            <mxPoint x="757" y="1700" as="sourcePoint" />
            <mxPoint x="712" y="1646" as="targetPoint" />
          </mxGeometry>
        </mxCell>
        <mxCell id="ZeO_S6Ifk-VQ_fXQaw0C-121" value="" style="shape=stencil(fZbdcgIhDIWfZm8zQAg/17Z9j85U606tdqz9e/tmZ0c0uJ47xP0I5JwEBl59bp8/1kNwn6fj4W39M76ctgM/DCGM++36OJ50NPDjwKvN4bh+PR6+9i/z74/n6ctp9H74nlb4nbmSKZeJCu5vngmZ6jzzNAO7cX8FVKEsBuBKrgKg9oAE8gkCbLeUhEoEQKSUDZDLeWYRKIl8MEDRmHwfyBrBG6Amyu4+kDxxMoB3jhwgYu7TVAsVkFcWCs4CTBEoF4RctKeOxHIf8IXYpikHikAIf+MNUW94AGSSaoAoFIE3AlOyeWU+p2E5S9yfQZcQILVuQOwZdJNoS9Ls3wA5u2XZTIHECqeJ9kDpSaauRiNVcAY1QhdBzeLBli5WazpkSsBLV25uRaqWRyFawTQzRRIQYirJzq5atkBqLfouwqUxLBepthWb10vrWZY6UOAeyKCCtDV625mm9gmUC4Wc3VLJMMIE1BsA2FW9JraVlQB7n3c9oMKhCLEvIM1zBPZ25/umNQ1tVEC2G+fFCC8g398O2hNQuQlVu752DBfA+q0ptnqO5JFmeuIuo9DY7KjY71UxdJV4EntifPWorW++R/dC4t7V3DlIB5cHx2bc7eb3yvX//QNFp+bHDT/+Aw==);lineShape=1;strokeColor=default;sketch=1;hachureGap=4;jiggle=2;curveFitting=1;fontFamily=Architects Daughter;fontSource=https%3A%2F%2Ffonts.googleapis.com%2Fcss%3Ffamily%3DArchitects%2BDaughter;fontColor=#FF66FF;" vertex="1" parent="1">
          <mxGeometry x="651.8899368511516" y="1555.5628366760448" width="3.893783143429725" height="3.88769684696437" as="geometry" />
        </mxCell>
        <mxCell id="ZeO_S6Ifk-VQ_fXQaw0C-122" value="" style="shape=stencil(fZbdcgIhDIWfZm8zQAg/17Z9j85U606tdqz9e/tmZ0c0uJ47xP0I5JwEBl59bp8/1kNwn6fj4W39M76ctgM/DCGM++36OJ50NPDjwKvN4bh+PR6+9i/z74/n6ctp9H74nlb4nbmSKZeJCu5vngmZ6jzzNAO7cX8FVKEsBuBKrgKg9oAE8gkCbLeUhEoEQKSUDZDLeWYRKIl8MEDRmHwfyBrBG6Amyu4+kDxxMoB3jhwgYu7TVAsVkFcWCs4CTBEoF4RctKeOxHIf8IXYpikHikAIf+MNUW94AGSSaoAoFIE3AlOyeWU+p2E5S9yfQZcQILVuQOwZdJNoS9Ls3wA5u2XZTIHECqeJ9kDpSaauRiNVcAY1QhdBzeLBli5WazpkSsBLV25uRaqWRyFawTQzRRIQYirJzq5atkBqLfouwqUxLBepthWb10vrWZY6UOAeyKCCtDV625mm9gmUC4Wc3VLJMMIE1BsA2FW9JraVlQB7n3c9oMKhCLEvIM1zBPZ25/umNQ1tVEC2G+fFCC8g398O2hNQuQlVu752DBfA+q0ptnqO5JFmeuIuo9DY7KjY71UxdJV4EntifPWorW++R/dC4t7V3DlIB5cHx2bc7eb3yvX//QNFp+bHDT/+Aw==);lineShape=1;strokeColor=default;sketch=1;hachureGap=4;jiggle=2;curveFitting=1;fontFamily=Architects Daughter;fontSource=https%3A%2F%2Ffonts.googleapis.com%2Fcss%3Ffamily%3DArchitects%2BDaughter;" vertex="1" parent="1">
          <mxGeometry x="603.2233007020632" y="1622.8961852681673" width="3.893783143429725" height="3.88769684696437" as="geometry" />
        </mxCell>
        <mxCell id="ZeO_S6Ifk-VQ_fXQaw0C-123" value="" style="shape=stencil(fZbdcgIhDIWfZm8zQAg/17Z9j85U606tdqz9e/tmZ0c0uJ47xP0I5JwEBl59bp8/1kNwn6fj4W39M76ctgM/DCGM++36OJ50NPDjwKvN4bh+PR6+9i/z74/n6ctp9H74nlb4nbmSKZeJCu5vngmZ6jzzNAO7cX8FVKEsBuBKrgKg9oAE8gkCbLeUhEoEQKSUDZDLeWYRKIl8MEDRmHwfyBrBG6Amyu4+kDxxMoB3jhwgYu7TVAsVkFcWCs4CTBEoF4RctKeOxHIf8IXYpikHikAIf+MNUW94AGSSaoAoFIE3AlOyeWU+p2E5S9yfQZcQILVuQOwZdJNoS9Ls3wA5u2XZTIHECqeJ9kDpSaauRiNVcAY1QhdBzeLBli5WazpkSsBLV25uRaqWRyFawTQzRRIQYirJzq5atkBqLfouwqUxLBepthWb10vrWZY6UOAeyKCCtDV625mm9gmUC4Wc3VLJMMIE1BsA2FW9JraVlQB7n3c9oMKhCLEvIM1zBPZ25/umNQ1tVEC2G+fFCC8g398O2hNQuQlVu752DBfA+q0ptnqO5JFmeuIuo9DY7KjY71UxdJV4EntifPWorW++R/dC4t7V3DlIB5cHx2bc7eb3yvX//QNFp+bHDT/+Aw==);lineShape=1;strokeColor=default;sketch=1;hachureGap=4;jiggle=2;curveFitting=1;fontFamily=Architects Daughter;fontSource=https%3A%2F%2Ffonts.googleapis.com%2Fcss%3Ffamily%3DArchitects%2BDaughter;" vertex="1" parent="1">
          <mxGeometry x="561.2232803570109" y="1669.5628519348338" width="3.893783143429725" height="3.88769684696437" as="geometry" />
        </mxCell>
        <mxCell id="ZeO_S6Ifk-VQ_fXQaw0C-124" value="" style="shape=stencil(fZbdcgIhDIWfZm8zQAg/17Z9j85U606tdqz9e/tmZ0c0uJ47xP0I5JwEBl59bp8/1kNwn6fj4W39M76ctgM/DCGM++36OJ50NPDjwKvN4bh+PR6+9i/z74/n6ctp9H74nlb4nbmSKZeJCu5vngmZ6jzzNAO7cX8FVKEsBuBKrgKg9oAE8gkCbLeUhEoEQKSUDZDLeWYRKIl8MEDRmHwfyBrBG6Amyu4+kDxxMoB3jhwgYu7TVAsVkFcWCs4CTBEoF4RctKeOxHIf8IXYpikHikAIf+MNUW94AGSSaoAoFIE3AlOyeWU+p2E5S9yfQZcQILVuQOwZdJNoS9Ls3wA5u2XZTIHECqeJ9kDpSaauRiNVcAY1QhdBzeLBli5WazpkSsBLV25uRaqWRyFawTQzRRIQYirJzq5atkBqLfouwqUxLBepthWb10vrWZY6UOAeyKCCtDV625mm9gmUC4Wc3VLJMMIE1BsA2FW9JraVlQB7n3c9oMKhCLEvIM1zBPZ25/umNQ1tVEC2G+fFCC8g398O2hNQuQlVu752DBfA+q0ptnqO5JFmeuIuo9DY7KjY71UxdJV4EntifPWorW++R/dC4t7V3DlIB5cHx2bc7eb3yvX//QNFp+bHDT/+Aw==);lineShape=1;strokeColor=default;sketch=1;hachureGap=4;jiggle=2;curveFitting=1;fontFamily=Architects Daughter;fontSource=https%3A%2F%2Ffonts.googleapis.com%2Fcss%3Ffamily%3DArchitects%2BDaughter;" vertex="1" parent="1">
          <mxGeometry x="721.8899368511516" y="1630.2295084289744" width="3.893783143429725" height="3.88769684696437" as="geometry" />
        </mxCell>
        <mxCell id="ZeO_S6Ifk-VQ_fXQaw0C-125" value="" style="shape=stencil(fZbdcgIhDIWfZm8zQAg/17Z9j85U606tdqz9e/tmZ0c0uJ47xP0I5JwEBl59bp8/1kNwn6fj4W39M76ctgM/DCGM++36OJ50NPDjwKvN4bh+PR6+9i/z74/n6ctp9H74nlb4nbmSKZeJCu5vngmZ6jzzNAO7cX8FVKEsBuBKrgKg9oAE8gkCbLeUhEoEQKSUDZDLeWYRKIl8MEDRmHwfyBrBG6Amyu4+kDxxMoB3jhwgYu7TVAsVkFcWCs4CTBEoF4RctKeOxHIf8IXYpikHikAIf+MNUW94AGSSaoAoFIE3AlOyeWU+p2E5S9yfQZcQILVuQOwZdJNoS9Ls3wA5u2XZTIHECqeJ9kDpSaauRiNVcAY1QhdBzeLBli5WazpkSsBLV25uRaqWRyFawTQzRRIQYirJzq5atkBqLfouwqUxLBepthWb10vrWZY6UOAeyKCCtDV625mm9gmUC4Wc3VLJMMIE1BsA2FW9JraVlQB7n3c9oMKhCLEvIM1zBPZ25/umNQ1tVEC2G+fFCC8g398O2hNQuQlVu752DBfA+q0ptnqO5JFmeuIuo9DY7KjY71UxdJV4EntifPWorW++R/dC4t7V3DlIB5cHx2bc7eb3yvX//QNFp+bHDT/+Aw==);lineShape=1;strokeColor=default;sketch=1;hachureGap=4;jiggle=2;curveFitting=1;fontFamily=Architects Daughter;fontSource=https%3A%2F%2Ffonts.googleapis.com%2Fcss%3Ffamily%3DArchitects%2BDaughter;" vertex="1" parent="1">
          <mxGeometry x="692.5566442079225" y="1684.2294982564486" width="3.893783143429725" height="3.88769684696437" as="geometry" />
        </mxCell>
        <mxCell id="ZeO_S6Ifk-VQ_fXQaw0C-126" value="" style="shape=stencil(lVbRbtswDPwavx4kUSKl5677jwJNFmNZUqTZ1v59pRpOSitmkTdH4Uk8kkdyoIfX3dPLZgju9Xw6/t78H5/Pu4F+DCGMh93mNJ7r10CPAz1sj6fNr9Px7+F5+v3y1Czb15/jv3bD24QjB3ENFdz7dBLg4+fBz8l+Px6+2LNAorJ3cG7dXjJcWtzPYd0+C0JR9t4hGA+UiJj1Ax7FYFAysigAMZjWAd5dKM6IFCDeeKIGSZPmjGQBAogVINcTMcIUQTpM9YpssJYI1mFqcTBYc0TQiS7FJJ0ivI5rSaC8DohpjsmFNIOMVFOB16SFEA2XKCHrPKRajoZLPSDWYrrLpcBIRuIa6aDrm8DlnrBGU0Atb5qCmxW1WhgLwc0PrlVe1GIQeLZLW/vvBWzpsxMPeSQjBzf0GQVkya1rAUyznlabjAa0vmZFqbYxLbdckA2X2n0LuYnpUmvEtGiUdivuW/d3iH44VKeykexAs4AvAJ4jdzt3VfGaRasXQ6F1GiwEl6tmDT2kpRxE5htuPwDRiWNGMRj0syFB7rGPVbDW9IFovkRwhn3Htw5cq/Cu4/VSFdFsAH3KxGxIfU0QkkGgFZ0eC/ZG8v0GUz+u68923O+n7enr/8t1qR5NqxY9fgA=);lineShape=1;strokeColor=default;sketch=1;hachureGap=4;jiggle=2;curveFitting=1;fontFamily=Architects Daughter;fontSource=https%3A%2F%2Ffonts.googleapis.com%2Fcss%3Ffamily%3DArchitects%2BDaughter;" vertex="1" parent="1">
          <mxGeometry x="768.7442513746066" y="1694.9944719524738" width="5.17559456473047" height="3.34461322395858" as="geometry" />
        </mxCell>
        <mxCell id="ZeO_S6Ifk-VQ_fXQaw0C-130" value="" style="shape=stencil(fVbLctswDPwaXTEkAL7OafIfmYlTa+LaGcfp4+8LVZVi0NbeZBlLALtYiIM8fOyf33cDh4/L+fS2+zW+XPaDfBuYx+N+dx4v9jTI4yAPr6fz7vv59Hl8mX+/P0+R09OP08/phN8zrgYqMqE4/JnflEJR/715mgGH8XgFKEKFHaAW4rgNyEJSHaApVd4GJCupAzSKeRsgVoD2gP9H3AWwUuwyZMqgpMjUOkCgELYBSqV5kgJMEEj9+bmRgpYDpeDiU6HcUD3VM6SZElA5CoXsAEZyBAksg/iKxDoGDNl54jNwgS3bWDSfgStFwKkNXkeqMCnowUa7+gwaYIbJPMXLEIgRQCh7QI6Lne4DuJ9UK1KB20om9RmqUgBNZ9PVL4DGcFRTWvbDCjAdQElqLXqlY8DuMWGl9SkCMHS0rrlvIiVA06LrypJQAyxFUu1lENDB2t+VzsgNtl/8+TZIiFOLl5t4IBrfuLPBHayU/Pnc4H5pvdWMAUELNVP1AFuxDATjTOxHIlED8dO6Sj4B/CRopeqHFI9oNuvHLr6A+MIU/MTJspI3jd+5bPnI3Rfg5gtiFCekWF4MskqWSAGjV6ZdW0idyPbwddF4HQ+H+Z5y/X9/MbFX86VGHv8C);lineShape=1;strokeColor=#66FFFF;sketch=1;hachureGap=4;jiggle=2;curveFitting=1;fontFamily=Architects Daughter;fontSource=https%3A%2F%2Ffonts.googleapis.com%2Fcss%3Ffamily%3DArchitects%2BDaughter;" vertex="1" parent="1">
          <mxGeometry x="608.9522508668695" y="1548.042161896591" width="3.9789070206127994" height="4.583255169472599" as="geometry" />
        </mxCell>
        <mxCell id="ZeO_S6Ifk-VQ_fXQaw0C-131" value="" style="shape=stencil(lZ3Z0hxHboWfhrcVuS/XY/s9FCFqyBhZVFAcL29vIOjqv+ug+yv7jkuhqzITiQQODpCf6t/++vLLn58/lfTXj+/f/vH5P7/++uPLp/ovn0r5+seXz9+//rA/far/+qn+7bdv3z///fu3f/7x68+///mLP+l/+vdv/+G/8F8/5Wo/0napkv7757/kdP7Lv/0U+P3rH88C7WhFBVYFgXqsdBXIR+8okPtVoByV3lCOLp9Uj7RAIB9DBNpR6JPSsdtVoPMY0tFl0OMYGQWSfNLEaS376PMqsI7VQMD+e10ESjoyfJIJyCeVfFQYdJlHqVeBcowBAkN1qbRz7V8L9GNeB23/0ugN/cjjKjCOSW9ox5BZsmmgN9gXyxj20WADlXr06yfZ2q+JAvmqS6bwuHA261dt9S1Fn2S/JwLtqKRLWdW78n4wVVvyBt4PrptXI1DnMdJ7gWz7Qd6wjgbTattF9nTdpzq+E/jfWT8FWjoazJLt4HK1rc02EAzabITs6VbOtX8t0E/NeRJYsA5m57YIVNwPJpBlDO3oYJfM9IoxbrYHSaAcM6sAWT47PvbVzLRxquM7AVHvZitD62Dr2lWAtqjpngzBlAtUaemQu5l/+KCgefY8LfM8z8vH8zZnMEO2F+X5cmz4nn7sq1L0dtrZN8+LTvSOK2ZOyVVLu1ltONDbecw8nl9HgZ3Zzm34eH4fAwxkO9JVgUY+CqyvuTzX3x/l1Kg3z4s/MmwXkROm5nfYviaH5yjX+RkDjam5T/L787Qbr631seT3N58fp805n5/ptHxvnu9X/ZzlKPD9ZjWv+jNZP/Oxrvo8+zmid89f9WHOu9+X8S50jLJa6blPjXo3n9f5X+k8et7pW9Pn6feb6vPK+Ptd96M9P0Afhtpbe36jfZOQYlmEAN+z9Ji05xvsFzsAROFMoNOC5RcC6K6Uc4M/C5AzUdU3cAHyb8zIrSBA/k0/5+RJgFbZ3BXxb2zZyPU1h6gFvUvsoyXZOBsNuwkM2TnrqPSGfQZ+T1uZ/Bt3TK+zNAeOwTazhFFmjND1zefZ+2TtyLq7eZQx5GPCSkf7bvZ30qDjgbPPOOltVCQCC33lGHfZkYPT2sOZ1k8v7J3Alk+qp9l/F51KRHFziptZSvJJGWEFE2jXDTQSniMei4pjtNCxc09TPKPJIfnj4H5yvTCy2+qN94621aLdEZzHRvDOA3V4CFQ0MxYey44zd5Yiu1r0fDZ/mYL+GmL4tjFAqE1xiPaIAd4J7OsYGrsYFoDP6wZqN+tg6yoCD6TutcDUA8WCzUQLt87A7ylgplDQBMSQWUieyG82633dD/aRhPy1R5z1BFwUmNaPEP8JGin0hnweUE9oDVmNFpxJRxvpk8zXEUxr4542gRkwrQHrYIqgb5iI/LVg7s14EkRlAmKMzTwTNGIhvoKR/TyIXwvMUzefBOjIMgExZO6W0ietABVOjArNRtSiApvC1K1xQFno8/WkroObZwrM8wswkiK9HqHCgjvOBOZ10A5GwqDNuMss+Y6jMVQFhW1P045zsOK6cGYLaR1MQPAdMzOb4p8WPmlzwNT0BDLDM2kd2rmuT8YYZ6krOG+7nPDRHkAbO1ASgTYBnLdNW0k1Aoxke5BgmD7U/Wmc8zCBKgIPd+WdgERZ/eG+vxPY4joU9Fv7VE/AFZ7GEME80y4WkDjOJ5r2wwNZf3IS6YxzAcHPGM94IXCzDvOM559c6XWzDsFZxy061JsZj0zOW/WWN/AJZALia4zB0xpgycHeTH/s4CcBwnF60ZX2sIzPh3FVb0f2SJeSGgELLSs5J1s3kAWv5PO1rQ7WzHhkuY247rhZMctoAhLtWsReyF9a4ZPsBAJT6QJX2zrHGaj9XwUWpvReCGwMB0xAlG8lBKR8lgKChT7fVhR9VQRCTECUb3W2rUnDgTUwLHNtlTesEzp+6y8VFcA3lPBJtoHoFK3hkzb7fE0hLxNAb6brG3Zi12GoV2kCBG6a9RbnZHO+yo6PuVUAx7AV0XUBeMNI5/HxLEApsaw5Oh8DzJKdNz0I0IEyqsJF6xHOvhOQiN2Uj9IgoylGZvuBcD4TkEEvDpr8CBRtbZi5cpBOtLVi0DS6ng/rcSa9FoiodMJzegScz0wlZd1NQLCZyX7rmIpgmbknMMcEppxAHW3rCBniyd69n/uS8io8SyGHMtkImKMgUZb9C37SVvTH3km+hn1AdH9olmbAZtzBAjNjc5LCJxHkNQMVzaeBBeK00glk66oJi4zI+qx6Tvs7aZbqSb940iUCETy5KgKdx/AAfJ82EE5rU8tn7g/5fDNmLBP6Gv7F4pwURKXng3j2bPlYQKbVjDF5ZGYjxIVbC2PROTTKcl+DZmkovmRHFoUDMxiynU/j+VpgaQy0CwavM3iVu2L+wWy1hMe7Ib5kiiC6ZAJEdrHzZsobOiZSV0jHmwBtIPeDRYAjxdXVtpoAOSemaiowMX5YU/NAJkArvULQZAKEYK1g7vcNySqpbTUBWjjTzRoF4Mgy3axhlmhaTTdLVgHKT5uAQF6uGjSGpsSC3TDNuR9MoKcdR2mdHdL+O/EnBdLhYnDTlVksH3ObTUBShKa/OK1TTyAzxmRbTaCJqSysGjNQZjJyCHewfH5ksYDoknuVYGZMQNTb7Dk5WCYgg56c/HIB8TUa5kX3Uo/MfQ1a6eiGPiLstwLiOiQsDvBpDW4ohWW+cIH8hhto6pHlIQjN0gzkiIYJbdsPYgQ82CT17oGQlzAlsrsO2kJyilDckAlQzpHix7n/hHuTN2PWW3SpJ56lpAiWY1qgGm62JIcyMHhdS92f1vkNMxCDGzrrZueECdoqhpYen18XrjF11w1j5JiTQAg4PMVNg856ArWEuMYKKJxny8gz3jqGulggMBHqxE9yODbUK9Cedkt6NQKVE9oeU11XurJqzKJOYq2442YObAoui3ISroyhMJiz1dGtBX1vE5CkfM1Ig7FwW6c13yEn4iTWhAfKGOrdl405xdGVLGwCNK0jsNkL4xp2GkjWsjBpa9QTBnwIDIxFR9FwwOkXhM3kIFAR0R1JbavTGikftwNJJSE9rwfuT94navYWZJa6wpvk19IxZCZ49KkhfmbvvgcCYG6YB+pTMYHMlQI9GDIvn2Gwv0rlYuJajcCr3Hg89K7avZhW0HTZONQ1t0IJiYh591Bu2lhRSyBScFY3q8daOX0fuOcVo6sWC99wPp14eH2e48M2AwmJa2UeOeun5yk9OzRQuvn9Hn+fKtha0zQLF0M6+U3IPnfsOokMG7oW5j2JPnN9XEshZ49+s/lOkoEfSAY310moFhNNkD2f9HliZtRQrDFxveoM6RgEnmpAqthI12BCx933SwXkwFoT/30h+CBUbc9LEXTn2qyARPQTB3j3/NbfJ3C+BuZAR7ZEDcBfR/2vwf50dNDqit+PVOsdaDdon189f7NftDzjjtQsDuZElMbLliXXwUzxpfp5ux932I+szxKSMizl+qy/T/w23y96vpOD8mo/3tgHOa8HZnfdnuj+xfmfSqFl7k8NTmLHJH6dyly4eT7oT+P13QqQMcbXgmdf7wjxsl4F49xW9HzndiGOd1zPO44b7HwXpuANQS1Q1RPmjCNTPbE/FtDAhOe7+W8yP4nXa6v/k+5Y6lu/H3nCWWP6hP6kM8glSML574EmU5iR26J/iJzIrjn+yszrrv5Mu2OmSr5x4PkYCcKTw9rgL607tq+cXxbgISMtoJ45c1S7Qsefesfmki2Qb2Kw/aK9DjYg2MpIs1Ce4LmRFLnNiyGVrOzGGzhihB4qtnEoMBxFA5PCZW2jKinoJvQcLYRi7Wwa9A7a0uY3A7tHjcA9LEx8dXJWKEWi/KdzrQLahqy6pcwP30D/LyZU2chIm0l3dE3oYprADjAp5T9naGBgApR3m0Xz0B9NtF4LtFDWVjHsmF3dxtow7vYWCiLQMVHnVBERYOWbW0/yOvHo/EjxPgQWnv2raCzn0QKlb6rWkNWNeegV60ITbqA19Dg0hwyTXCGX3riAcQVA4KN+8J2AUDpbQ0O2Atu3dfRpdwrVURMbjOwS6nM3mspdlf7luCDlP1uoxG4Y53gOV3CiiY6zU4BCkQ2OISau2WrsAIjbEUOx0Q6lF4OLkvdW6+2UTkpcb42uzTyTbd3BvZ1cc59TCt0SmPT2SqIwtWmrOb5pWLODPzNvJ1a6/3mKkz9JC3kWprlMQNiHnqYl3sR+0Q2EkGITULJ5wYPX1U94RIzVRzrKGpjMiGSRtRAN2qESbnHXuR3gyps6hD0C+5A7y3xwDR8CzOF3+qNw0riZn/2eQB57YZ54h6aKvvb0htDhyhWeprWooXnata8lsrrfm+tsdlJlcgFiWuzAxNsIZTgfJY6a/JOANXzYz9cCXc2GCVAYtFqo5GFyoNNLgm5QvB59rL0wQen1IlkFiLq3QgbOdy1zkHUMAxfOXdesAsgFD703NnfQcy542NQ3bHOJX/e9gy+6VPCodoqMDDrjjnMSvxwQXArndQXBGlMtqdMZRWAguDpDr4HV+Q01HHKVC0KqskU8CqGFK+Gg3uh+O5EoEk05WBQz4+VLNOgS/B+mNZhDJdo6OUk7gzGeGYP2mUJLvYQtOr24SNJCmwsRsgZak/srzxR6lWXe0ylkatn/MQFtn1a56HGHxoys3l7SJeswmEgUuu6a8mFJYugJNPddoZqQodYNA2y+qjBkiCnWMBKO4JiUfFLDHOwI3QzMzFA1ksNk4laOO9qbWj5OM47+opD5pvhUACAv4LhBH8WbyVwwGNofuFdH2hr6jtoZR3jOiyLgymBiLDOuzIbawTWujGQvrY3YrHx9vogHbhhg6joU7L770cz3SQBJaU0NmQlQq6UeK6qYtOx1+jKGfMe6kl4DJkBb9AMfelJv5P0sBXXXuuv5oN4MFxe1sNJmNSgFEalaZsgIp2hDfb7FLeC8A5AMOqFX2UL19uQWPy1Erw4kUz46EBznTWOwEc64G4bXCB5Z4Q4lU22r1/RSznsqF9x9A27WISQpr4JhVqG2vF6IoMY+LoN5ZD2pG+qnHhMppd7po9T/ndUQJNsOMWylEW5aGA0BUeeayhiYFu2dxEKbIhToml0f3MrdjXHoKUpOYg+Jms4XWLwQWEyL7qH700Df2zuIyhuYI+bNzQQrb3e9yrTeqaD7411WQotQVL4WaESJ+97Fmxb2HTFa8y7MrOyhsN9NG/ei0fsoOpr7HmC4VhF77CEPeXPjhQsI2zZhirqH3vR1M589tHCo687MaJaQ04qmOcKPqJ3b2AXL5+1haR1SSCtWvkBhqyGrfOdS7GVZ811/KaWpJwxp/MoN4fFs3KKmzKJLhXvstqHHrl+0Qc5J11i0cOOXFrK19gYq3GzBapSNQZNf37J1WulAMYHYnxYHXUKLUGaROME99OPEMeTQlHcixbqFSs/KXVZqcE6cxUgkyh0aPHMrb/+AUFaJtNcVWlM2pGE5z1QS+Ux3qKH0p3Ehc+0ha765M3c8drltl5kt2UCdL/JwVQvdMm96f0vxaW+YTjABHQPf/VGzGrI++A1JK9s6XylWw91XnW89KIEO5+Xe3BZe0NDBZfclkPwHJxXLVGM8mFZZAu16cJ1CCeo9Btol530HqgDOUuiAO26uYQlU4ZnRX/KLiK5vuOnCFW8WcqD85vI4wVsbQi2lKHw6mS9f8osAHFUjWO/JyV0nUhYVIAQrBz7p4iv2PgpBnyBg0tb86gYavFxlqOVb3FQrh2zZanxnUAuZpoY+34sbZTjazSX0H2x8TVLsltkweM2hxY8LUI499CBtiLSENnmLHemhHKzVcJlDEnXxbuuhxRdfgNnCRUmc0KkBr6uIgBStVfXMBt3oE76Hu6aF3luLizuShriLixci8Woh+BFuXZ0To5gUcnwd+Z0poJkNS87D/HhDQdD/kG6Y7P0HT9s7MuD66pHJF8HlADMOvtUq1EZ0THaH2tmbO3zCVUpOoic/JzSIZEpaUZvbuctybIKz8OirGlV0RmzCxW6dLXTgP/R6cxGcjpfdwAizZWTvd02J3/T8Gfo97abj4YtreOiKgnAFcpvc+0ZRwjaYsxtq9TrfM5dC84GG0FFOL7jWePdpVkDh5p6IXMIYuJWa+x2yaNzAPQdQpGWEUnPoSty4w3UOvTnrxmxHDq02vcyXBj0DXjYRA8+hTKtOxGly6JxZ2XHPgbVWOx6uOeSq766JDoQVLxoh85hCU6Qbe52VF1f5imU/QUQgsUDRDObHRervBPRqo8mxddX84kek+i5qFFpPYa/UK4DlkyoPOjS3/bjy9F1sLQf/TZVpCdU+eSMVo4Tktt/HTesQ0ueZ84vxltA88FbmEshPN917SoAhM3d3q6H3h9+WTed/Vmq22XNyOGu4nyBzbZoDbEKUYMivBvYtnj8f16s9XH5M19TQS5pP9BpaSS/cCjW0H7p9Xuz2QjZmDeXH3JSqhta/C8lqNfK2GK3sofEvX/LXAwcdj1p/XvUH1zc01mPGeo0sY4zwff6lBVdiWP1ewP7w5y8/vvz8y29ff//9rx/fv/3j8/P///bt++e/f//2zz9+ffzTX19++fOz/e1/AA==);lineShape=1;strokeColor=#66FFFF;sketch=1;hachureGap=4;jiggle=2;curveFitting=1;fontFamily=Architects Daughter;fontSource=https%3A%2F%2Ffonts.googleapis.com%2Fcss%3Ffamily%3DArchitects%2BDaughter;" vertex="1" parent="1">
          <mxGeometry x="518.4966503318292" y="1536.1897446960495" width="270.5390339407554" height="184.44613191303915" as="geometry" />
        </mxCell>
      </root>
    </mxGraphModel>
  </diagram>
  <diagram id="DzkaAQvgaHaJZR-Xa67-" name="第 2 页">
    <mxGraphModel dx="1242" dy="538" grid="1" gridSize="10" guides="1" tooltips="1" connect="1" arrows="1" fold="1" page="1" pageScale="1" pageWidth="1200" pageHeight="1920" math="0" shadow="0">
      <root>
        <mxCell id="0" />
        <mxCell id="1" parent="0" />
      </root>
    </mxGraphModel>
  </diagram>
</mxfile>
